<svg width="76" height="70" viewBox="0 0 76 70" fill="none" xmlns="http://www.w3.org/2000/svg">
  <g clip-path="url(#clip0_254_2209)">
    <path d="M51.5716 46.0516C60.7289 46.0516 68.1432 36.1617 68.1432 23.9477C68.1432 11.7337 60.7289 1.84375 51.5716 1.84375C42.4142 1.84375 34.9873 11.7463 34.9873 23.9477C34.9873 36.1491 42.4142 46.0516 51.5716 46.0516Z" fill="white"/>
    <path d="M22.1038 35.0009H9.20773C9.20773 37.0218 7.55309 38.6891 5.51953 38.6891V68.1568H25.792V38.6765C23.7711 38.6765 22.1038 37.0218 22.1038 34.9883V35.0009Z" fill="#FF9D0B"/>
    <path d="M53.4157 53.3292C65.2761 52.2177 74.686 40.471 75.4691 25.9203C75.5323 24.8593 74.686 23.9499 73.625 23.9499C72.6525 23.9499 71.8441 24.6951 71.7936 25.6677C71.0989 39.0564 62.3584 49.7421 51.5716 49.7421C40.7849 49.7421 32.0444 39.0564 31.3497 25.6677C31.2992 24.6951 30.4908 23.9499 29.5182 23.9499C28.4572 23.9499 27.6236 24.8467 27.6741 25.9203C28.4572 40.471 37.8546 52.2177 49.7275 53.3292V66.3137H27.6362V38.6901C27.6362 37.667 26.8152 36.846 25.7921 36.846C24.769 36.846 23.948 36.025 23.948 35.0019C23.948 33.9788 23.127 33.1578 22.1039 33.1578H18.4157V23.9499H22.1039C23.127 23.9499 23.948 23.1289 23.948 22.1058C23.948 21.0827 23.127 20.2617 22.1039 20.2617H18.4157H14.7275H9.20787C8.18477 20.2617 7.36377 21.0827 7.36377 22.1058V23.9499C7.36377 24.973 8.18477 25.794 9.20787 25.794C10.231 25.794 11.052 24.973 11.052 23.9499H14.7402V33.1578H9.20787C8.18477 33.1578 7.36377 33.9788 7.36377 35.0019C7.36377 36.025 6.54276 36.846 5.51967 36.846C4.49657 36.846 3.67557 37.667 3.67557 38.6901V44.2098V47.8979V66.3137H1.8441C0.821003 66.3137 0 67.1347 0 68.1578C0 69.1809 0.821003 70.0019 1.8441 70.0019H3.6882H27.6362H71.8441C72.8672 70.0019 73.6882 69.1809 73.6882 68.1578C73.6882 67.1347 72.8672 66.3137 71.8441 66.3137H53.4284V53.3292H53.4157ZM8.42476 39.6374C9.09419 39.2206 9.68784 38.6648 10.1299 37.9828C10.572 37.3007 11.2667 36.846 12.0751 36.846H19.3504C20.0956 36.846 20.7524 37.2754 21.144 37.907C21.5608 38.5764 22.1166 39.1701 22.7986 39.6121C23.4807 40.0542 23.9354 40.7489 23.9354 41.5573V41.9867C23.9354 43.2119 22.9376 44.2098 21.7124 44.2098H9.58679C8.3616 44.2098 7.36377 43.2119 7.36377 41.9867V41.431C7.36377 40.6858 7.79322 40.0289 8.42476 39.6374ZM7.36377 64.4822V49.7168C7.36377 48.7063 8.18477 47.8853 9.19524 47.8853H22.1166C23.127 47.8853 23.948 48.7063 23.948 49.7168V64.4822C23.948 65.4927 23.127 66.3137 22.1166 66.3137H9.19524C8.18477 66.3137 7.36377 65.4927 7.36377 64.4822Z" fill="#8B08F9"/>
    <path d="M51.572 47.8961C61.7019 47.8961 69.9877 37.2104 69.9877 23.948C69.9877 10.6857 61.7019 0 51.572 0C41.4421 0 33.1562 10.6857 33.1562 23.948C33.1562 37.2104 41.4421 47.8961 51.572 47.8961ZM51.572 3.6882C59.681 3.6882 66.3122 12.7192 66.3122 23.948C66.3122 35.1768 59.681 44.2079 51.572 44.2079C43.463 44.2079 36.8318 35.1768 36.8318 23.948C36.8318 12.7192 43.4756 3.6882 51.572 3.6882Z" fill="#8B08F9"/>
    <path d="M49.1118 9.18699L41.5559 16.7429C40.8358 17.4631 40.8358 18.6307 41.5559 19.3509C42.2761 20.071 43.4437 20.071 44.1639 19.3508L51.7198 11.7949C52.44 11.0748 52.44 9.90715 51.7198 9.18699C50.9996 8.46682 49.832 8.46682 49.1118 9.18699Z" fill="#8B08F9"/>
    <path d="M48.9484 16.6053L47.9124 17.6413C47.1922 18.3615 47.1922 19.5291 47.9124 20.2493C48.6325 20.9695 49.8002 20.9695 50.5203 20.2493L51.5564 19.2133C52.2765 18.4931 52.2765 17.3255 51.5564 16.6053C50.8362 15.8851 49.6686 15.8851 48.9484 16.6053Z" fill="#8B08F9"/>
  </g>
  <defs>
    <clipPath id="clip0_254_2209">
      <rect width="75.4691" height="70" fill="white"/>
    </clipPath>
  </defs>
</svg>
