<svg width="74" height="68" viewBox="0 0 74 68" fill="none" xmlns="http://www.w3.org/2000/svg">
  <g clip-path="url(#clip0_254_2021)">
    <path d="M1.85222 63.5352H72.1605C73.1881 63.5352 74.0127 64.3598 74.0127 65.3874C74.0127 66.415 73.1881 67.2396 72.1605 67.2396H1.85222C0.824619 67.2396 0 66.415 0 65.3874C0 64.3598 0.824619 63.5352 1.85222 63.5352Z" fill="#8B08F9"/>
    <path d="M22.6067 63.8535C20.7418 61.9886 20.7418 59.0453 22.6067 57.3327L46.8378 33.1016L53.3586 39.6224L29.2924 63.8535C27.4275 65.7184 24.4843 65.7184 22.6194 63.8535H22.6067Z" fill="white"/>
    <path d="M25.8677 66.8069C24.1551 66.8069 22.6073 66.1853 21.5163 64.942C20.4252 63.6988 19.6514 62.3032 19.6514 60.5906C19.6514 58.8779 20.273 57.3302 21.5163 56.2391L46.8257 30.9297L55.6809 39.7848L30.3714 64.942C29.1281 66.1853 27.5804 66.8069 25.8677 66.8069ZM46.8384 35.2811L23.6983 58.4212C23.2289 59.0428 22.7722 59.8167 22.7722 60.5906C22.7722 61.3645 23.0767 62.1383 23.6983 62.76C24.9416 64.0032 26.9588 64.0032 28.0498 62.76L51.0376 39.7721L46.8384 35.2684V35.2811Z" fill="#8B08F9"/>
    <path d="M32.5527 24.4092L25.5625 18.1929L38.9213 3.13409C40.634 1.26918 43.5772 0.964706 45.4422 2.66469C47.3071 4.37736 47.6115 7.32061 45.9115 9.18552L32.5527 24.4092Z" fill="#FF9D0B"/>
    <path d="M32.7054 26.5794L23.3936 18.3459L37.8307 2.04382C38.9218 0.800551 40.4695 0.0266788 42.1822 0.0266788C43.8948 -0.125558 45.4426 0.496077 46.6859 1.57442C49.1724 3.90873 49.4769 7.79078 47.1553 10.2773L32.7181 26.5794H32.7054ZM27.7323 18.0414L32.3882 22.2406L44.8083 8.26018C45.8993 7.01691 45.7344 4.99976 44.5038 3.90873C43.8822 3.28709 43.1083 3.13486 42.3344 3.13486C41.5605 3.13486 40.7867 3.60425 40.165 4.22589L27.745 18.0414H27.7323Z" fill="#8B08F9"/>
    <path d="M36.9811 47.4617L42.4744 41.9684C43.0833 41.3595 44.0602 41.3595 44.6691 41.9684C45.2781 42.5774 45.2781 43.5542 44.6691 44.1632L39.1759 49.6564C38.5669 50.2654 37.5901 50.2654 36.9811 49.6564C36.3722 49.0475 36.3722 48.0706 36.9811 47.4617Z" fill="#8B08F9"/>
    <path d="M25.9938 58.3591C26.6028 57.7501 27.5796 57.7501 28.1886 58.3591C28.7975 58.968 28.7975 59.9449 28.1886 60.5538C27.5796 61.1628 26.6028 61.1628 25.9938 60.5538C25.3849 59.9449 25.3849 58.968 25.9938 58.3591Z" fill="#8B08F9"/>
    <path d="M35.8512 6.85124C36.4602 6.24229 37.437 6.24229 38.046 6.85124C38.6549 7.46019 38.6549 8.43705 38.046 9.046C37.437 9.65495 36.4602 9.65495 35.8512 9.046C35.2423 8.43705 35.2423 7.46019 35.8512 6.85124Z" fill="#8B08F9"/>
    <path d="M34.7096 14.4762C35.3186 13.8673 36.2954 13.8673 36.9044 14.4762C37.5133 15.0852 37.5133 16.062 36.9044 16.671C36.2954 17.2799 35.3186 17.2799 34.7096 16.671C34.1007 16.062 34.1007 15.0852 34.7096 14.4762Z" fill="#8B08F9"/>
    <path d="M6.30526 46.9276C4.90975 45.6844 4.44035 43.6672 5.21423 41.9546L12.8261 24.2443C13.2955 23.3182 14.5388 23.001 15.3126 23.6227L28.3543 35.2688C29.1282 36.0427 28.9759 37.2859 28.0498 37.7553L11.4306 47.3843C9.71791 48.3105 7.70077 48.1582 6.30526 46.915V46.9276Z" fill="#FF9D0B"/>
    <path d="M9.24812 49.5676C7.85261 49.5676 6.45711 49.0982 5.36607 48.0199C4.45265 47.1953 3.81833 46.1169 3.53922 44.9244C3.26012 43.7319 3.36161 42.4759 3.80564 41.3468L11.4175 23.6366C11.8869 22.7105 12.6608 22.0888 13.5869 21.7717C14.513 21.6194 15.604 21.7717 16.3779 22.5455L29.4196 34.1917C30.1934 34.8133 30.5106 35.9044 30.5106 36.8305C30.3584 37.7566 29.889 38.6954 28.9628 39.1648L12.1914 48.7938C11.2653 49.2632 10.1742 49.5676 9.23544 49.5676H9.24812ZM14.2212 24.8798L6.60934 42.5901C6.13994 43.6811 6.45711 44.9244 7.38322 45.6983C8.30933 46.4722 9.5526 46.6244 10.6436 46.0028L27.4151 36.3737L14.2085 24.8798H14.2212Z" fill="#8B08F9"/>
    <path d="M68.1135 25.0309L60.0322 33.1122L55.6808 30.9428L53.5114 26.5913L61.5927 18.5101C57.089 16.6452 51.6592 17.419 47.9294 21.1489C43.1212 25.957 43.1212 33.886 47.9294 38.6942C52.7375 43.5024 60.6665 43.5024 65.4747 38.6942C69.2045 34.9644 69.9784 29.5346 68.1135 25.0309Z" fill="white"/>
    <path d="M56.6191 43.8212C53.0415 43.8212 49.4766 42.4257 46.6856 39.787C41.2558 34.3572 41.2558 25.502 46.6856 20.0595C50.7199 16.0253 56.784 14.782 62.0616 17.1036C63.1019 17.5476 63.3683 18.9051 62.569 19.7043L55.7184 26.555C55.4266 26.8468 55.3505 27.2781 55.5281 27.646L56.4922 29.6759C56.581 29.8788 56.746 30.0438 56.949 30.1326L58.9788 31.0967C59.3467 31.2744 59.778 31.1982 60.0698 30.9065L66.9205 24.0558C67.7197 23.2565 69.0772 23.5103 69.5212 24.5632C71.6906 29.8408 70.6123 35.9049 66.5653 39.9392C63.9265 42.4257 60.1967 43.8212 56.6318 43.8212H56.6191ZM56.6191 18.9685C53.8281 18.9685 51.0244 20.0595 49.0072 22.2289C44.808 26.4281 44.808 33.4057 49.0072 37.6049C53.2065 41.8041 60.184 41.8041 64.3832 37.6049C66.3369 35.5243 67.428 32.8602 67.5041 30.158C67.5294 29.2953 66.4638 28.8512 65.8548 29.4602L60.831 34.484C60.5392 34.7758 60.0952 34.8519 59.7273 34.6616L54.7288 32.1624C54.5385 32.0736 54.3863 31.9214 54.2975 31.7311L51.7983 26.7326C51.608 26.3647 51.6841 25.9207 51.9759 25.6289L58.6363 18.9685H56.6191Z" fill="#8B08F9"/>
    <path d="M20.6025 28.4054L27.8211 20.2734L30.1427 22.3413L22.9242 30.4733L20.6025 28.4054Z" fill="#8B08F9"/>
  </g>
  <defs>
    <clipPath id="clip0_254_2021">
      <rect width="74" height="67.2381" fill="white"/>
    </clipPath>
  </defs>
</svg>
