<svg width="74" height="66" viewBox="0 0 74 66" fill="none" xmlns="http://www.w3.org/2000/svg">
  <g clip-path="url(#clip0_254_2086)">
    <path d="M2.31875 61.9141H72.1593C73.1803 61.9141 73.9995 62.7333 73.9995 63.7543C73.9995 64.7752 73.1803 65.5945 72.1593 65.5945H2.31875C1.2978 65.5945 0.478516 64.7752 0.478516 63.7543C0.478516 62.7333 1.2978 61.9141 2.31875 61.9141Z" fill="#8B08F9"/>
    <path d="M69.953 31.6641H41.3916V63.5782H69.953V31.6641Z" fill="#FF9D0B"/>
    <path d="M63.2727 50.0156H58.3822C57.4425 50.0156 56.6807 50.7774 56.6807 51.7172V51.7298C56.6807 52.6696 57.4425 53.4314 58.3822 53.4314H63.2727C64.2125 53.4314 64.9743 52.6696 64.9743 51.7298V51.7172C64.9743 50.7774 64.2125 50.0156 63.2727 50.0156Z" fill="#8B08F9"/>
    <path d="M59.9956 56.6599C59.9956 55.741 59.2535 54.9961 58.3381 54.9961C57.4227 54.9961 56.6807 55.741 56.6807 56.6599V56.7481C56.6807 57.667 57.4227 58.4119 58.3381 58.4119C59.2535 58.4119 59.9956 57.667 59.9956 56.7481V56.6599Z" fill="#8B08F9"/>
    <path d="M64.9741 56.656C64.9741 55.7371 64.232 54.9922 63.3167 54.9922C62.4013 54.9922 61.6592 55.7371 61.6592 56.656V56.7442C61.6592 57.6631 62.4013 58.408 63.3167 58.408C64.232 58.408 64.9741 57.6631 64.9741 56.7442V56.656Z" fill="#8B08F9"/>
    <path d="M69.2347 30.1133H42.4883C41.5934 30.1133 40.8119 30.5922 40.3834 31.3107C40.1817 31.6762 40.0557 32.0922 40.0557 32.5333V62.6072C40.0557 63.9433 41.1396 65.0399 42.4883 65.0399H69.2347C70.5707 65.0399 71.6673 63.9433 71.6673 62.6072V32.5333C71.6673 31.1973 70.5707 30.1133 69.2347 30.1133ZM68.2515 60.7796C68.2515 61.246 67.8734 61.6241 67.4197 61.6241H44.3159C43.8496 61.6241 43.4714 61.246 43.4714 60.7796V34.3609C43.4714 34.071 43.6101 33.819 43.837 33.6803C43.9756 33.5795 44.1395 33.5291 44.3159 33.5291H50.0131V37.6255C50.0131 40.8648 52.6222 43.4739 55.8615 43.4739C57.4748 43.4739 58.9369 42.831 59.9957 41.7597C61.0545 40.7009 61.7099 39.2388 61.7099 37.6255V33.5291H67.4197C67.8734 33.5291 68.2515 33.8946 68.2515 34.3609V60.7796ZM53.4289 37.6255V34.6004C53.4289 34.008 53.9078 33.5291 54.4876 33.5291H57.2354C57.8278 33.5291 58.3067 34.008 58.3067 34.6004V37.6255C58.3067 38.9741 57.2101 40.0707 55.8615 40.0707C55.1935 40.0707 54.5758 39.7934 54.1347 39.3523C53.6935 38.8985 53.4289 38.3061 53.4289 37.6255Z" fill="#8B08F9"/>
    <path d="M43.4845 33.087C43.2198 32.8223 42.9299 32.5702 42.6274 32.356C42.451 32.2299 42.2745 32.1165 42.0854 32.0156C42.0854 32.003 42.0602 32.003 42.0476 32.003C41.5183 31.7005 40.9763 31.461 40.3839 31.3098C40.3713 31.3098 40.3587 31.2972 40.3461 31.2972C39.7915 31.1459 39.1991 31.0703 38.6319 31.0703H9.64191C7.80168 31.0703 6.08749 31.7888 4.77664 33.087C3.491 34.3853 2.78516 36.0994 2.78516 37.9271V55.8C2.78516 58.1948 4.72622 60.1485 7.13365 60.1485H41.1149C41.2157 60.1485 41.3166 60.1485 41.4048 60.1485H41.4426V56.5815C41.4426 56.5815 41.4174 56.5941 41.4048 56.5941C41.3292 56.6319 41.2284 56.6571 41.1149 56.6571H36.9681V46.5106C36.9681 45.5527 36.1866 44.7712 35.2161 44.7712C34.2456 44.7712 33.4641 45.5527 33.4641 46.5106V56.6571H14.8097V46.5106C14.8097 45.5527 14.0282 44.7712 13.0577 44.7712C12.0871 44.7712 11.3057 45.5527 11.3057 46.5106V56.6571H7.13365C6.66729 56.6571 6.27655 56.279 6.27655 55.8126V37.9397C6.27655 37.0448 6.62948 36.2003 7.25969 35.5701C7.90251 34.9398 8.7344 34.5995 9.64191 34.5995H38.6319C39.0478 34.5995 39.4385 34.6751 39.8293 34.8264C39.9049 34.8516 39.9805 34.8894 40.0562 34.9146C40.157 34.9651 40.2452 35.0155 40.3461 35.0659C40.5729 35.2045 40.8124 35.381 41.0015 35.5701C41.1527 35.7213 41.304 35.8852 41.4048 36.0742C41.4174 36.0868 41.43 36.112 41.4426 36.1246V36.049C41.4426 35.6079 41.8082 35.2549 42.2493 35.2549H43.4719V34.3726C43.4719 34.0827 43.6106 33.8307 43.8374 33.692V33.4903C43.7366 33.3517 43.6106 33.2257 43.4845 33.0996V33.087Z" fill="#8B08F9"/>
    <path d="M34.4097 4.26026C31.662 1.51252 28.0193 0 24.1372 0C20.2551 0 16.5872 1.51252 13.8521 4.26026C11.1043 6.9954 9.5918 10.6381 9.5918 14.5328C9.5918 18.4275 11.1043 22.0702 13.8521 24.8179C16.5872 27.5657 20.2425 29.0656 24.1372 29.0656C28.0319 29.0656 31.662 27.5657 34.4097 24.8179C37.1701 22.0702 38.6574 18.4275 38.6574 14.5328C38.6574 10.6381 37.1701 6.9954 34.4097 4.26026ZM31.9393 22.3475C29.8469 24.4146 27.0866 25.5742 24.1372 25.5742C21.1878 25.5742 18.4148 24.4146 16.3225 22.3475C14.2428 20.2425 13.1084 17.4822 13.1084 14.5328C13.1084 11.5834 14.2428 8.81042 16.3225 6.73071C18.4148 4.651 21.2004 3.51661 24.1372 3.51661C27.074 3.51661 29.8469 4.651 31.9393 6.73071C34.0064 8.81042 35.166 11.5834 35.166 14.5328C35.166 17.4822 34.0064 20.2425 31.9393 22.3475Z" fill="#8B08F9"/>
  </g>
  <defs>
    <clipPath id="clip0_254_2086">
      <rect width="74" height="65.5929" fill="white"/>
    </clipPath>
  </defs>
</svg>
