<svg width="74" height="70" viewBox="0 0 74 70" fill="none" xmlns="http://www.w3.org/2000/svg">
  <g clip-path="url(#clip0_254_2165)">
    <path d="M1.84643 66.2305H71.935C72.9593 66.2305 73.7814 67.0525 73.7814 68.0769C73.7814 69.1013 72.9593 69.9233 71.935 69.9233H1.84643C0.822042 69.9233 0 69.1013 0 68.0769C0 67.0525 0.822042 66.2305 1.84643 66.2305Z" fill="#8B08F9"/>
    <path d="M31.6414 31.4764V6.99219H35.1446C48.6134 6.99219 59.6288 18.0075 59.6288 31.4764H57.8835V45.6408C57.8835 48.4357 55.6071 50.7122 52.6351 50.7122H12.4056C9.43365 50.7122 7.15723 48.4357 7.15723 45.6408V31.4764H31.6414Z" fill="white"/>
    <path d="M52.6226 52.4605H12.4058C8.56116 52.4605 5.41211 49.3114 5.41211 45.6439V29.7342H29.8963V5.25H35.1447C49.6506 5.25 61.3742 16.9609 61.3742 31.4794V33.2247H59.6289V45.6439C59.6289 49.3114 56.4799 52.4605 52.6352 52.4605H52.6226ZM8.91527 33.2247V45.6439C8.91527 47.3891 10.4835 48.97 12.4184 48.97H52.6352C54.5575 48.97 56.1384 47.4018 56.1384 45.6439V29.7342H57.8837C57.011 18.0233 47.2224 8.75316 35.1574 8.75316H33.4121V33.2247H8.91527Z" fill="#8B08F9"/>
    <path d="M57.8709 29.7188V45.6284C57.8709 48.4234 55.5944 50.6998 52.6224 50.6998H12.4056C9.43365 50.6998 7.15723 48.4234 7.15723 45.6284V31.464" fill="white"/>
    <path d="M52.6226 52.4607H12.4058C8.56116 52.4607 5.41211 49.3116 5.41211 45.644V31.4796H8.91527V45.644C8.91527 47.3893 10.4835 48.9701 12.4184 48.9701H52.6352C54.5575 48.9701 56.1384 47.4019 56.1384 45.644V29.7344H59.6416V45.644C59.6416 49.3116 56.4925 52.4607 52.6479 52.4607H52.6226Z" fill="#8B08F9"/>
    <path d="M43.0108 62.9435C47.3613 62.9435 50.8771 59.4151 50.8771 55.0772C50.8771 50.7394 47.3487 47.2109 43.0108 47.2109C38.673 47.2109 35.1445 50.7394 35.1445 55.0772C35.1445 59.4151 38.673 62.9435 43.0108 62.9435Z" fill="white"/>
    <path d="M43.011 64.688C37.7626 64.688 33.3994 60.3122 33.3994 55.0764C33.3994 49.8406 37.7752 45.4648 43.011 45.4648C48.2467 45.4648 52.6225 49.8406 52.6225 55.0764C52.6225 60.3122 48.2467 64.688 43.011 64.688ZM43.011 48.9554C39.6849 48.9554 36.8899 51.7503 36.8899 55.0764C36.8899 58.4025 39.6849 61.1975 43.011 61.1975C46.3371 61.1975 49.132 58.4025 49.132 55.0764C49.132 51.7503 46.3371 48.9554 43.011 48.9554Z" fill="#8B08F9"/>
    <path d="M20.2726 62.9435C24.6231 62.9435 28.1389 59.4151 28.1389 55.0772C28.1389 50.7394 24.6104 47.2109 20.2726 47.2109C15.9347 47.2109 12.4062 50.7394 12.4062 55.0772C12.4062 59.4151 15.9347 62.9435 20.2726 62.9435Z" fill="white"/>
    <path d="M20.2727 64.688C15.0243 64.688 10.6611 60.3122 10.6611 55.0764C10.6611 49.8406 15.0369 45.4648 20.2727 45.4648C25.5085 45.4648 29.8843 49.8406 29.8843 55.0764C29.8843 60.3122 25.5085 64.688 20.2727 64.688ZM20.2727 48.9554C16.9466 48.9554 14.1516 51.7503 14.1516 55.0764C14.1516 58.4025 16.9466 61.1975 20.2727 61.1975C23.5988 61.1975 26.3937 58.4025 26.3937 55.0764C26.3937 51.7503 23.5988 48.9554 20.2727 48.9554Z" fill="#8B08F9"/>
    <path d="M31.6416 27.9732V6.99219H35.1448C48.6136 6.99219 59.629 18.0075 59.629 31.4764" fill="white"/>
    <path d="M61.3617 31.4795H57.8585C57.8585 18.8959 47.7158 8.75316 35.1322 8.75316H33.387V27.9889H29.8838V5.25H35.1322C49.6381 5.25 61.3617 16.9609 61.3617 31.4795Z" fill="#8B08F9"/>
    <path d="M34.2594 1.74609C35.6632 1.74609 36.8773 2.97283 36.8773 4.36398V31.4787H31.6289V4.37663C31.6289 2.97283 32.8556 1.75874 34.2468 1.75874L34.2594 1.74609Z" fill="white"/>
    <path d="M38.6354 33.2231H29.8965V4.37579C29.8965 1.92231 31.8188 0 34.2723 0C36.7258 0 38.6481 1.92231 38.6481 4.37579V33.2231H38.6354ZM33.387 29.72H35.1323V4.37579C35.1323 3.85727 34.7781 3.50316 34.2596 3.50316C33.7411 3.50316 33.387 3.85727 33.387 4.37579V29.72Z" fill="#8B08F9"/>
    <path d="M36.0175 34.9701H6.28488C4.88108 34.9701 3.66699 33.7434 3.66699 32.3523C3.66699 30.9611 4.89373 29.7344 6.28488 29.7344H36.0175C37.4213 29.7344 38.6354 30.9611 38.6354 32.3523C38.6354 33.7434 37.4086 34.9701 36.0175 34.9701Z" fill="white"/>
    <path d="M36.0176 36.7125H6.28497C3.83149 36.7125 1.90918 34.7902 1.90918 32.3367C1.90918 29.8832 3.83149 27.9609 6.28497 27.9609H36.0176C38.4711 27.9609 40.3934 29.8832 40.3934 32.3367C40.3934 34.7902 38.4711 36.7125 36.0176 36.7125ZM6.28497 31.4767C5.76645 31.4767 5.41234 31.8309 5.41234 32.3494C5.41234 32.8679 5.76645 33.222 6.28497 33.222H36.0176C36.5361 33.222 36.8902 32.8679 36.8902 32.3494C36.8902 31.8309 36.5361 31.4767 36.0176 31.4767H6.28497Z" fill="#8B08F9"/>
    <path d="M34.2596 36.7125C36.6751 36.7125 38.6354 34.7523 38.6354 32.3367C38.6354 29.9212 36.6751 27.9609 34.2596 27.9609C31.844 27.9609 29.8838 29.9212 29.8838 32.3367C29.8838 34.7523 31.844 36.7125 34.2596 36.7125Z" fill="white"/>
    <path d="M34.2597 38.4726C30.9336 38.4726 28.1387 35.6776 28.1387 32.3515C28.1387 29.0254 30.9336 26.2305 34.2597 26.2305C37.5858 26.2305 40.3808 29.0254 40.3808 32.3515C40.3808 35.6776 37.5858 38.4726 34.2597 38.4726ZM34.2597 29.7336C32.8559 29.7336 31.6418 30.9604 31.6418 32.3515C31.6418 33.7427 32.8686 34.9694 34.2597 34.9694C35.6509 34.9694 36.8776 33.7427 36.8776 32.3515C36.8776 30.9604 35.6509 29.7336 34.2597 29.7336Z" fill="#8B08F9"/>
    <path d="M53.4958 57.6967C54.9502 57.6967 56.1137 56.5206 56.1137 55.0788C56.1137 53.6371 54.9376 52.4609 53.4958 52.4609C52.0541 52.4609 50.8779 53.6371 50.8779 55.0788C50.8779 56.5206 52.0541 57.6967 53.4958 57.6967Z" fill="#8B08F9"/>
    <path d="M20.2722 57.6928C21.7266 57.6928 22.8901 56.5167 22.8901 55.0749C22.8901 53.6332 21.7139 52.457 20.2722 52.457C18.8304 52.457 17.6543 53.6332 17.6543 55.0749C17.6543 56.5167 18.8304 57.6928 20.2722 57.6928Z" fill="#8B08F9"/>
    <path d="M43.0114 57.6928C44.4658 57.6928 45.6293 56.5167 45.6293 55.0749C45.6293 53.6332 44.4532 52.457 43.0114 52.457C41.5697 52.457 40.3936 53.6332 40.3936 55.0749C40.3936 56.5167 41.5697 57.6928 43.0114 57.6928Z" fill="#8B08F9"/>
    <path d="M61.3614 30.1368V27.1648C61.3614 25.761 60.1347 24.5469 58.7435 24.5469C57.3524 24.5469 56.1257 25.7736 56.1257 27.1648V30.1368C51.0543 31.3635 47.3867 35.7266 47.3867 41.1521V63.0058C47.3867 65.9778 49.6631 68.2542 52.6351 68.2542H64.8772C67.8492 68.2542 70.1257 65.9778 70.1257 63.0058V41.1521C70.1257 35.7266 66.4581 31.3635 61.3867 30.1368H61.3614Z" fill="#FF9D0B"/>
    <path d="M63.1067 28.7446V27.3661C63.1067 24.9885 61.2856 22.8891 58.908 22.8006C56.3786 22.6994 54.3551 24.6597 54.3551 27.1638V28.732C49.1067 30.6543 45.6162 35.5486 45.6162 41.1511V63.0048C45.6162 66.8494 48.7653 69.9985 52.6099 69.9985H64.852C68.6966 69.9985 71.8457 66.8494 71.8457 63.0048V41.1511C71.8457 35.3842 68.3425 30.4899 63.1067 28.732V28.7446ZM68.3551 49.0301H61.3615C60.4003 49.0301 59.6162 49.8142 59.6162 50.7753C59.6162 51.7365 60.4003 52.5206 61.3615 52.5206H68.3551V56.0237H66.6099C65.6487 56.0237 64.8646 56.8078 64.8646 57.769C64.8646 58.7302 65.6487 59.5143 66.6099 59.5143H68.3551V63.0174C68.3551 64.9397 66.7869 66.5079 64.8646 66.5079H52.6225C50.7002 66.5079 49.132 64.9397 49.132 63.0174V49.0301C49.132 47.0951 50.7002 45.5396 52.6225 45.5396H64.8646C66.7996 45.5396 68.3551 47.1078 68.3551 49.0301ZM49.1194 42.0364V41.1638C49.1194 36.6236 52.0914 32.7663 56.4672 31.8937L57.871 31.5396V27.1638C57.871 26.6452 58.2251 26.2911 58.7436 26.2911C59.2621 26.2911 59.6162 26.6452 59.6162 27.1638V31.5396L61.02 31.8937C65.3958 32.7663 68.3678 36.6109 68.3678 41.1638V42.0364H49.132H49.1194Z" fill="#8B08F9"/>
    <path d="M21.3217 30.5913L13.8095 21.5994C13.4807 21.1947 12.9874 20.9671 12.4689 20.9671H8.91518C7.95402 20.9671 7.16992 20.183 7.16992 19.2218C7.16992 18.2607 7.95402 17.4766 8.91518 17.4766H13.8727C14.6062 17.4766 15.3145 17.8054 15.7824 18.3745L23.9649 28.3149L21.347 30.5913H21.3217Z" fill="#8B08F9"/>
  </g>
  <defs>
    <clipPath id="clip0_254_2165">
      <rect width="73.7687" height="70" fill="white"/>
    </clipPath>
  </defs>
</svg>
