<svg width="87" height="70" viewBox="0 0 87 70" fill="none" xmlns="http://www.w3.org/2000/svg">
  <g clip-path="url(#clip0_254_2152)">
    <path d="M10.3186 66.2148H82.4264C83.4803 66.2148 84.326 67.0606 84.326 68.1145C84.326 69.1684 83.4803 70.0141 82.4264 70.0141H10.3186C9.26467 70.0141 8.41895 69.1684 8.41895 68.1145C8.41895 67.0606 9.26467 66.2148 10.3186 66.2148Z" fill="#8B08F9"/>
    <path d="M83.454 13.7268L68.1529 0.468402C67.8016 0.169145 67.3592 0 66.9038 0H17.2273C16.7589 0 16.3295 0.169145 15.9782 0.468402L0.651042 13.7268C-0.0905936 14.3773 -0.220705 15.4833 0.364797 16.29L9.98004 29.6134C10.6176 30.5112 11.8927 30.6673 12.7384 29.9647L20.428 23.6152C20.6882 23.4071 21.0786 23.5892 21.0786 23.9275V57.21C21.0786 58.2639 21.9243 59.1227 22.9912 59.1227H61.1269C62.1678 59.1227 63.0265 58.277 63.0265 57.21V23.9275C63.0265 23.5892 63.4299 23.4071 63.6901 23.6152L71.3797 29.9647C72.2254 30.6673 73.5005 30.5112 74.138 29.6134L83.7533 16.29C84.3258 15.4833 84.1957 14.3773 83.454 13.7268ZM78.4577 17.0316L73.3834 24.2398C72.7458 25.1375 71.4447 25.3067 70.599 24.5911L62.3499 17.6822C61.1139 16.6413 59.2273 17.526 59.2273 19.1524V53.3848C59.2273 54.4387 58.3685 55.2974 57.3146 55.2974H26.8035C25.7496 55.2974 24.8908 54.4517 24.8908 53.3848V19.1524C24.8908 17.526 22.9912 16.6413 21.7551 17.6822L13.5191 24.5911C12.6603 25.3067 11.3722 25.1375 10.7347 24.2398L5.66034 17.0316C5.10086 16.2379 5.23097 15.145 5.95959 14.4944L17.4875 4.29368C17.8388 3.99442 18.2812 3.82528 18.7496 3.82528H65.3555C65.8239 3.82528 66.2663 3.99442 66.6176 4.29368L78.1455 14.5074C78.8741 15.158 78.9912 16.2509 78.4447 17.0446L78.4577 17.0316Z" fill="#8B08F9"/>
    <path d="M57.822 46.125L68.1138 52.2272C74.9837 52.2272 80.5135 57.757 80.5135 64.6269H29.0283V62.5321L30.5506 47.8555C37.993 51.4726 46.7625 51.4726 54.1919 47.8555L57.809 46.138L57.822 46.125Z" fill="#FF9D0B"/>
    <path d="M29.0676 66.5259C28.0007 66.5259 27.1289 65.6542 27.1289 64.5872V62.4274C27.1289 62.4274 27.1289 62.2973 27.1289 62.2322L28.5731 47.6988C28.7033 46.3716 30.1085 45.5649 31.3185 46.1244C38.3705 49.5594 46.3854 49.5594 53.2423 46.1244L56.8594 44.3159C57.4579 44.0166 58.1605 44.0426 58.733 44.3939L68.101 50.0798C68.3612 50.2359 68.6475 50.327 68.9468 50.34C76.3631 50.9385 82.2181 56.9497 82.2181 64.6133C82.2181 65.6672 81.3594 66.5259 80.3055 66.5259H29.0676ZM33.075 62.7136H77.5731C78.0025 62.7136 78.3408 62.3103 78.2237 61.8939C76.9746 57.5222 72.9802 54.1393 68.127 54.1393H67.5546L58.5508 48.7787C57.9783 48.4404 57.2757 48.4144 56.6902 48.7136L54.9728 49.5724C48.4412 52.669 41.1289 53.2805 34.2981 51.4069C33.1401 51.0947 31.9821 51.8884 31.865 53.0854L31.1494 60.5928C31.0453 61.7378 31.943 62.7136 33.088 62.7136H33.075Z" fill="#8B08F9"/>
    <path d="M51.9278 41.7386C52.5133 40.8669 53.6974 40.6197 54.5691 41.2052L62.8182 46.7089C63.6899 47.2944 63.9371 48.4784 63.3516 49.3502C62.7661 50.2219 61.5821 50.4691 60.7104 49.8836L52.4613 44.3799C51.5895 43.7944 51.3423 42.6104 51.9278 41.7386Z" fill="#8B08F9"/>
    <path d="M59.0187 52.436L60.7101 49.8988C61.2956 49.027 62.4796 48.7798 63.3514 49.3653C64.2231 49.9508 64.4703 51.1349 63.8848 52.0066L62.1934 54.5438C61.6079 55.4155 60.4239 55.6627 59.5521 55.0772C58.6804 54.4917 58.4332 53.3077 59.0187 52.436Z" fill="#8B08F9"/>
    <path d="M42.0527 15.6541C35.3389 15.6541 29.8742 10.84 28.8724 4.43852C28.6902 3.30655 29.627 2.30469 30.772 2.30469C31.7348 2.30469 32.5025 3.0203 32.6586 3.9571C33.4263 8.48498 37.2776 11.8289 42.0527 11.8289C46.8278 11.8289 50.6791 8.47197 51.4467 3.9571C51.6028 3.0203 52.3835 2.30469 53.3333 2.30469C54.4783 2.30469 55.4021 3.30655 55.233 4.43852C54.2311 10.84 48.7664 15.6541 42.0527 15.6541ZM47.7776 19.4664H51.5898C52.6437 19.4664 53.5025 20.3251 53.5025 21.379C53.5025 22.4329 52.6437 23.2917 51.5898 23.2917H47.7776C46.7237 23.2917 45.8649 22.4329 45.8649 21.379C45.8649 20.3251 46.7237 19.4664 47.7776 19.4664Z" fill="#8B08F9"/>
    <path d="M38.5655 62.713H34.7532C34.7532 59.4732 32.2681 56.988 29.0283 56.988V53.1758C34.3629 53.1758 38.5655 57.3654 38.5655 62.713Z" fill="#8B08F9"/>
  </g>
  <defs>
    <clipPath id="clip0_254_2152">
      <rect width="86.4071" height="70" fill="white"/>
    </clipPath>
  </defs>
</svg>
