<svg width="77" height="70" viewBox="0 0 77 70" fill="none" xmlns="http://www.w3.org/2000/svg">
  <g clip-path="url(#clip0_254_2193)">
    <path d="M1.91889 66.1758H74.7578C75.8224 66.1758 76.6767 67.0301 76.6767 68.0947C76.6767 69.1593 75.8224 70.0136 74.7578 70.0136H1.91889C0.8543 70.0136 0 69.1593 0 68.0947C0 67.0301 0.8543 66.1758 1.91889 66.1758Z" fill="#8B08F9"/>
    <path d="M71.6171 50.5361H5.04741C3.29938 50.5361 1.73535 48.9721 1.73535 47.2241V43.5703H74.9291V47.2241C74.9291 48.9721 73.3651 50.5361 71.6171 50.5361Z" fill="white"/>
    <path d="M71.6166 52.2691H5.04694C2.26061 52.2691 0 50.0084 0 47.2221C0 44.2386 2.41833 41.8203 5.4018 41.8203H71.2617C74.2452 41.8203 76.6635 44.2386 76.6635 47.2221C76.6635 50.0084 74.4029 52.2691 71.6166 52.2691ZM3.48291 47.2221C3.48291 48.0896 4.1795 48.7861 5.04694 48.7861H71.4457C72.3132 48.7861 73.0098 48.0896 73.0098 47.2221C73.0098 46.1575 72.1555 45.3032 71.0909 45.3032H5.4018C4.33721 45.3032 3.48291 46.1575 3.48291 47.2221Z" fill="#8B08F9"/>
    <path d="M67.0818 43.5581H9.58083C7.13621 43.5581 5.23047 41.6392 5.23047 39.2078V6.10036C5.23047 3.65575 7.14936 1.75 9.58083 1.75H67.0818C69.5264 1.75 71.4321 3.66889 71.4321 6.10036V39.2078C71.4321 41.6524 69.5132 43.5581 67.0818 43.5581Z" fill="white"/>
    <path d="M67.0827 45.3042H9.58178C6.26973 45.3042 3.4834 42.5178 3.4834 39.2058V6.09839C3.4834 2.78633 6.26973 0 9.58178 0H67.0827C70.3948 0 73.1811 2.78633 73.1811 6.09839V39.2058C73.1811 42.5178 70.3948 45.3042 67.0827 45.3042ZM9.58178 3.48291C8.18862 3.48291 6.96631 4.70522 6.96631 6.09839V39.2058C6.96631 40.5989 8.18862 41.8213 9.58178 41.8213H67.0827C68.4759 41.8213 69.6982 40.5989 69.6982 39.2058V6.09839C69.6982 4.70522 68.4759 3.48291 67.0827 3.48291H9.58178Z" fill="#8B08F9"/>
    <path d="M11.4218 10.6344L14.9967 7.05945C15.6801 6.37602 16.7841 6.37602 17.4544 7.05945C18.1379 7.74289 18.1379 8.84691 17.4544 9.51721L13.8795 13.0921C13.1961 13.7756 12.0921 13.7756 11.4218 13.0921C10.7383 12.4087 10.7383 11.3047 11.4218 10.6344Z" fill="#8B08F9"/>
    <path d="M12.1571 20.2263L25.3396 7.04383C26.0231 6.36039 27.1271 6.36039 27.7974 7.04383C28.4808 7.72727 28.4808 8.83129 27.7974 9.50158L14.6149 22.6841C13.9314 23.3675 12.8274 23.3675 12.1571 22.6841C11.4737 22.0006 11.4737 20.8966 12.1571 20.2263Z" fill="#8B08F9"/>
    <path d="M58.3684 66.2143H39.2058C36.7612 66.2143 34.8555 64.2954 34.8555 61.864V25.2605C34.8555 22.8159 36.7744 20.9102 39.2058 20.9102H58.3684C60.813 20.9102 62.7188 22.829 62.7188 25.2605V61.8508C62.7188 64.2954 60.7999 66.2012 58.3684 66.2012V66.2143Z" fill="#FF9D0B"/>
    <path d="M58.3684 67.9511H39.2058C35.8938 67.9511 33.1074 65.1648 33.1074 61.8528V25.2624C33.1074 21.9504 35.8938 19.1641 39.2058 19.1641H58.3684C61.6805 19.1641 64.4668 21.9504 64.4668 25.2624V61.8528C64.4668 65.1648 61.6805 67.9511 58.3684 67.9511ZM39.2058 22.647C37.8126 22.647 36.5903 23.8693 36.5903 25.2624V61.8528C36.5903 63.2459 37.8126 64.4682 39.2058 64.4682H58.3684C59.7616 64.4682 60.9839 63.2459 60.9839 61.8528V25.2624C60.9839 23.8693 59.7616 22.647 58.3684 22.647H39.2058Z" fill="#8B08F9"/>
    <path d="M48.7871 60.9843C49.7465 60.9843 50.5351 60.2089 50.5351 59.2363C50.5351 58.2637 49.7597 57.4883 48.7871 57.4883C47.8145 57.4883 47.0391 58.2637 47.0391 59.2363C47.0391 60.2089 47.8145 60.9843 48.7871 60.9843Z" fill="#8B08F9"/>
    <path d="M38.3379 10.4492C39.2973 10.4492 40.0859 9.67374 40.0859 8.70115C40.0859 7.72857 39.3105 6.95312 38.3379 6.95312C37.3653 6.95312 36.5898 7.72857 36.5898 8.70115C36.5898 9.67374 37.3653 10.4492 38.3379 10.4492Z" fill="#8B08F9"/>
  </g>
  <defs>
    <clipPath id="clip0_254_2193">
      <rect width="76.6635" height="70" fill="white"/>
    </clipPath>
  </defs>
</svg>
