<svg width="74" height="65" viewBox="0 0 74 65" fill="none" xmlns="http://www.w3.org/2000/svg">
  <g clip-path="url(#clip0_254_2039)">
    <path d="M4.4627 61.3867H69.5371C70.4884 61.3867 71.2518 62.1501 71.2518 63.1014C71.2518 64.0526 70.4884 64.816 69.5371 64.816H4.4627C3.51142 64.816 2.74805 64.0526 2.74805 63.1014C2.74805 62.1501 3.51142 61.3867 4.4627 61.3867Z" fill="#8B08F9"/>
    <path d="M48.7735 57.2753L43.8527 57.4867C42.5491 57.5454 41.3629 56.6998 40.9871 55.4432L39.6483 50.9804C39.5661 50.722 39.3547 50.5224 39.0963 50.4519C37.734 50.0761 36.4891 49.5711 35.2207 48.9369L29.0433 52.9652L22.1377 46.6116L25.6375 40.1288C24.8271 38.8017 24.1694 37.4746 23.6527 35.9831L16.6532 34.6208L16.2656 25.2724L23.2769 23.1702C23.6644 21.6435 24.2164 20.2577 24.9093 18.8718L20.8811 12.6944L27.2347 5.78885L33.3182 9.07721C33.5648 9.2064 33.8701 9.2064 34.105 9.05373C35.1737 8.41954 36.2542 7.89105 37.4286 7.45652C37.687 7.36256 37.8866 7.13943 37.9454 6.85757L38.7909 2.51222C39.0493 1.20862 40.1533 0.257342 41.4804 0.198622L46.3424 -0.00102936C47.646 -0.0597502 48.8322 0.78583 49.208 2.04246L50.5469 6.50524C50.6291 6.76361 50.8405 6.96326 51.0988 7.03373C52.3085 7.37431 53.4477 7.80884 54.5634 8.34907C54.81 8.46652 55.1036 8.45477 55.3385 8.3021L59.2728 5.73012C60.365 5.01373 61.8095 5.13117 62.7843 6.02373L66.4132 9.35907C67.3762 10.2516 67.6229 11.6727 67.0004 12.8236L64.769 16.9576C64.6399 17.2042 64.6516 17.4978 64.7925 17.7327C65.4267 18.8014 65.9552 19.8936 66.4015 21.0798C66.4954 21.3381 66.7068 21.526 66.9769 21.5848L71.5337 22.5478C72.8138 22.8179 73.7533 23.9218 73.8003 25.2254L74.0117 30.1228C74.0704 31.4264 73.2248 32.6125 71.9682 32.9883L67.5054 34.3272C67.2471 34.4094 67.0474 34.6208 66.9769 34.8792C66.6364 36.0888 66.2018 37.228 65.6616 38.3437C65.5442 38.5903 65.5559 38.8839 65.7086 39.1188L68.2805 43.0531C68.9969 44.1453 68.8795 45.5898 67.9869 46.5646L64.6516 50.1936C63.759 51.1566 62.338 51.4032 61.1871 50.7808L57.0531 48.5494C56.8065 48.4202 56.5129 48.4319 56.278 48.5729C55.1975 49.207 54.1171 49.7355 52.9309 50.1818C52.6843 50.2758 52.4846 50.4872 52.4259 50.7455L51.4746 55.0321C51.1928 56.3005 50.1006 57.2166 48.797 57.2753H48.7735ZM45.2972 54.398L47.1645 54.3158C47.9984 54.2805 48.703 53.6816 48.8792 52.8595L49.9714 47.7038L50.8639 47.5159C52.6491 46.9874 54.2815 46.1653 55.9022 45.1905L56.6421 44.709L61.2575 47.2458C61.9974 47.6568 62.9135 47.5041 63.4889 46.8817L64.7221 45.5429C65.2975 44.9204 65.368 43.9926 64.8982 43.288L61.9857 38.9074L62.4085 38.1323C63.2423 36.4411 63.9235 34.75 64.2993 32.9179L64.4167 32.0018L69.4667 30.4868C70.2653 30.2402 70.8055 29.4886 70.7703 28.6547L70.6881 26.8227C70.6529 25.9888 70.0539 25.2842 69.2318 25.108L64.0761 24.0158L63.8882 23.1232C63.3597 21.3381 62.5376 19.7057 61.5629 18.085L61.0814 17.3451L63.6181 12.7297C64.0292 11.9898 63.8765 11.0737 63.254 10.4983L61.9152 9.26512C61.2928 8.68966 60.365 8.61919 59.6603 9.08896L55.2798 12.0015L54.5046 11.5787C52.8135 10.7449 51.1223 10.0637 49.2902 9.68791L48.3742 9.57047L46.7183 4.35606C46.4716 3.5692 45.72 3.04071 44.8862 3.07594L43.0306 3.15815C42.1967 3.19338 41.4921 3.79234 41.3277 4.60268L40.2355 9.77012L39.3429 9.95803C37.5578 10.4865 35.9254 11.3086 34.3047 12.2834L33.5648 12.7649L27.6927 9.53524L24.5218 12.988L28.2329 18.5665L27.8101 19.3416C26.9763 21.0328 26.2951 22.7239 25.9193 24.556L25.8019 25.4721L19.4013 27.5508L19.601 32.225L26.1542 33.6108L26.3421 34.5033C26.8706 36.2885 27.6927 37.9209 28.6675 39.5416L29.149 40.2815L25.9193 46.1536L29.3721 49.3245L34.9506 45.6133L35.7257 46.0361C37.4169 46.8699 39.108 47.5511 40.9401 47.9269L41.8562 48.0444L43.5121 53.1296C43.7705 53.9165 44.5103 54.4332 45.3324 54.398H45.2972ZM46.4716 39.2127C39.8714 40.0466 34.2694 34.8909 34.5395 28.2437C34.7509 23.1937 38.697 18.8953 43.7117 18.2729C50.312 17.4391 55.9139 22.5948 55.6438 29.242C55.4324 34.2919 51.4864 38.5903 46.4716 39.2127ZM44.9919 21.1972C40.5878 21.2677 37.2642 24.8849 37.5695 29.2772C37.8397 33.1997 41.2572 36.3472 45.1915 36.2885C49.5956 36.218 52.9192 32.6008 52.6138 28.2085C52.3437 24.2859 48.9262 21.1385 44.9919 21.1972Z" fill="#8B08F9"/>
    <path d="M23.7705 3.65234H8.77323C4.58968 3.65234 1.19824 7.04378 1.19824 11.2273V24.7096C1.19824 28.8932 4.58968 32.2846 8.77323 32.2846H23.7705C27.9541 32.2846 31.3455 28.8932 31.3455 24.7096V11.2273C31.3455 7.04378 27.9541 3.65234 23.7705 3.65234Z" fill="#FF9D0B"/>
    <path d="M27.1875 33.0117H12.1902C8.00667 33.0117 4.61523 36.4032 4.61523 40.5867V54.069C4.61523 58.2526 8.00667 61.644 12.1902 61.644H27.1875C31.3711 61.644 34.7625 58.2526 34.7625 54.069V40.5867C34.7625 36.4032 31.3711 33.0117 27.1875 33.0117Z" fill="#FF9D0B"/>
    <path d="M29.1142 63.5938H10.2765C6.50666 63.5938 3.42969 60.5169 3.42969 56.747V37.9093C3.42969 34.1395 6.50666 31.0625 10.2765 31.0625H29.1142C32.8841 31.0625 35.961 34.1395 35.961 37.9093V56.747C35.961 60.5169 32.8841 63.5938 29.1142 63.5938ZM10.2765 34.4801C8.39747 34.4801 6.84724 36.0185 6.84724 37.9093V56.747C6.84724 58.6261 8.38573 60.1763 10.2765 60.1763H29.1142C30.9932 60.1763 32.5435 58.6378 32.5435 56.747V37.9093C32.5435 36.0303 31.005 34.4801 29.1142 34.4801H10.2765Z" fill="#8B08F9"/>
    <path d="M25.6845 34.4806H6.84685C3.07697 34.4806 0 31.4036 0 27.6337V8.79609C0 5.02622 3.08872 1.9375 6.84685 1.9375H25.6962C29.4661 1.9375 32.5431 5.01447 32.5431 8.78435V27.6337C32.5431 31.4036 29.4544 34.4806 25.6962 34.4806H25.6845ZM6.84685 5.3668C4.96778 5.3668 3.41755 6.90528 3.41755 8.79609V27.6337C3.41755 29.5128 4.95604 31.063 6.84685 31.063H25.6962C27.5753 31.063 29.1255 29.5246 29.1255 27.6337V8.79609C29.1255 6.91703 27.5871 5.3668 25.6962 5.3668H6.84685ZM3.4293 53.3182H32.5431V56.7475H3.4293V53.3182Z" fill="#8B08F9"/>
    <path d="M1.71484 24.2044H30.8286V27.6337H1.71484V24.2044ZM16.2659 13.9283C13.9053 13.9283 11.9792 12.014 11.9792 9.64167V1.9375H20.5407V9.64167C20.5407 12.0023 18.6264 13.9283 16.2541 13.9283H16.2659ZM16.2659 10.499C16.7356 10.499 17.1232 10.1114 17.1232 9.64167V5.35505H15.4085V9.64167C15.4085 10.1114 15.7961 10.499 16.2659 10.499ZM19.6952 43.0421C17.3346 43.0421 15.4085 41.1278 15.4085 38.7555V31.0513H23.97V38.7555C23.97 41.116 22.0557 43.0421 19.6834 43.0421H19.6952ZM19.6952 39.6128C20.1649 39.6128 20.5525 39.2252 20.5525 38.7555V34.4688H18.8378V38.7555C18.8378 39.2252 19.2254 39.6128 19.6952 39.6128Z" fill="#8B08F9"/>
  </g>
  <defs>
    <clipPath id="clip0_254_2039">
      <rect width="74" height="64.8043" fill="white"/>
    </clipPath>
  </defs>
</svg>
