<svg width="74" height="70" viewBox="0 0 74 70" fill="none" xmlns="http://www.w3.org/2000/svg">
  <g clip-path="url(#clip0_254_2101)">
    <path d="M1.85222 65.375H72.1605C73.1881 65.375 74.0127 66.1996 74.0127 67.2272C74.0127 68.2548 73.1881 69.0794 72.1605 69.0794H1.85222C0.824619 69.0794 0 68.2548 0 67.2272C0 66.1996 0.824619 65.375 1.85222 65.375Z" fill="#8B08F9"/>
    <path d="M61.9852 64.1807H44.6428C41.763 64.1807 39.4414 61.8464 39.4414 58.9793V36.9683C39.4414 34.0885 39.9362 31.2213 40.9003 28.5064L48.1062 8.3223V0H58.1666L58.3442 8.3223L65.677 28.8363C66.565 31.3228 67.0217 33.9489 67.0217 36.6004V58.9666C67.1993 61.9098 64.9411 64.168 61.9979 64.168L61.9852 64.1807ZM42.9048 37.666V58.9793C42.9048 59.9434 43.6787 60.7173 44.6428 60.7173H61.9852C62.9494 60.7173 63.7232 59.9434 63.7232 58.9793V37.2474C63.7232 34.634 63.2792 32.0459 62.4165 29.5848L55.0584 8.67753L54.8808 3.47608H51.5823V9.02006L44.3764 29.2042C43.4123 31.9191 42.9175 34.7735 42.9175 37.666H42.9048Z" fill="#8B08F9"/>
    <path d="M48.1062 0H58.5091C59.4733 0 60.2471 0.773873 60.2471 1.73804C60.2471 2.70221 59.4733 3.47608 58.5091 3.47608H48.1062C47.142 3.47608 46.3682 2.70221 46.3682 1.73804C46.3682 0.773873 47.142 0 48.1062 0ZM49.8443 8.67753H56.7837C57.7479 8.67753 58.5218 9.4514 58.5218 10.4156C58.5218 11.3797 57.7479 12.1536 56.7837 12.1536H49.8443C48.8801 12.1536 48.1062 11.3797 48.1062 10.4156C48.1062 9.4514 48.8801 8.67753 49.8443 8.67753ZM53.3076 57.2412C52.3435 57.2412 51.5696 56.4674 51.5696 55.5032C51.5696 54.539 52.3435 53.7651 53.3076 53.7651C55.2233 53.7651 56.771 52.2174 56.771 50.3017V38.1608C56.771 37.1966 57.5449 36.4228 58.5091 36.4228C59.4733 36.4228 60.2471 37.1966 60.2471 38.1608V50.3017C60.2471 54.133 57.139 57.2412 53.3076 57.2412Z" fill="#8B08F9"/>
    <path d="M27.9602 28.9488H24.7506C18.2424 28.9488 12.9775 23.6712 12.9775 17.1757V13.9661C12.9775 13.3952 13.4469 12.9258 14.0178 12.9258H17.2275C23.7356 12.9258 29.0005 18.2033 29.0005 24.6988V27.9085C29.0005 28.4794 28.5311 28.9488 27.9602 28.9488ZM16.1872 17.1631C16.1872 21.8951 20.0185 25.7391 24.7632 25.7391C25.3341 25.7391 25.8035 25.2697 25.8035 24.6988C25.8035 19.9668 21.9722 16.1228 17.2275 16.1228C16.6566 16.1228 16.1872 16.5922 16.1872 17.1631Z" fill="#8B08F9"/>
    <path d="M33.4921 33.2734C31.2466 33.2734 29.3309 33.9204 27.4026 35.0369C25.6391 33.9204 23.5586 33.2734 21.3131 33.2734C14.1072 33.2734 8.16992 40.4793 8.16992 49.4487C8.16992 58.418 15.7057 65.7888 22.9116 65.7888H31.7286C39.0995 65.7888 46.4703 58.5829 46.4703 49.4487C46.4703 40.3144 40.6979 33.2734 33.4921 33.2734Z" fill="#FF9D0B"/>
    <path d="M31.8807 67.4007H23.0637C15.2107 67.4007 6.55859 59.7127 6.55859 49.4621C6.55859 39.2114 13.1302 31.5234 21.3002 31.5234C23.3808 31.5234 25.4614 32.0055 27.3897 33.1219C29.3181 32.1578 31.3986 31.5234 33.4792 31.5234C41.6493 31.5234 48.2209 39.5286 48.2209 49.4621C48.2209 59.3955 39.5687 67.4007 31.8807 67.4007ZM21.3129 34.8727C14.9063 34.8727 9.78095 41.4442 9.78095 49.6143C9.78095 57.7844 16.6697 64.3559 22.9241 64.3559H31.7412C37.9956 64.3559 44.8843 58.1015 44.8843 49.6143C44.8843 41.6092 39.5941 34.8727 33.3524 34.8727C31.5889 34.8727 29.8255 35.3547 28.227 36.4711L27.4278 36.9532L26.6285 36.4711C25.03 35.3547 23.2666 34.8727 21.3383 34.8727H21.3129Z" fill="#8B08F9"/>
    <path d="M13.3327 49.615H13.1297C12.2417 49.615 11.5312 48.8411 11.6327 47.9658C12.2417 42.2442 15.9842 37.639 20.6274 36.6748C21.5535 36.4845 22.4289 37.195 22.4289 38.1465V38.3367C22.4289 39.0726 21.8834 39.6688 21.1602 39.8211C17.811 40.5188 15.2484 43.9822 14.8043 48.2702C14.7282 49.0314 14.0939 49.615 13.32 49.615H13.3327ZM27.3005 24.1406H27.5035C28.3281 24.1406 29.0005 24.813 29.0005 25.6376V38.6666C29.0005 39.4912 28.3281 40.1636 27.5035 40.1636H27.3005C26.4759 40.1636 25.8035 39.4912 25.8035 38.6666V25.6376C25.8035 24.813 26.4759 24.1406 27.3005 24.1406ZM27.3005 62.5932H27.5035C28.3281 62.5932 29.0005 63.2656 29.0005 64.0902V64.2932C29.0005 65.1178 28.3281 65.7902 27.5035 65.7902H27.3005C26.4759 65.7902 25.8035 65.1178 25.8035 64.2932V64.0902C25.8035 63.2656 26.4759 62.5932 27.3005 62.5932Z" fill="#8B08F9"/>
  </g>
  <defs>
    <clipPath id="clip0_254_2101">
      <rect width="74" height="69.0777" fill="white"/>
    </clipPath>
  </defs>
</svg>
