<svg width="82" height="70" viewBox="0 0 82 70" fill="none" xmlns="http://www.w3.org/2000/svg">
  <g clip-path="url(#clip0_254_1987)">
    <path d="M4.61242 66.207H76.8146C77.87 66.207 78.717 67.054 78.717 68.1095C78.717 69.165 77.87 70.0119 76.8146 70.0119H4.61242C3.55695 70.0119 2.70996 69.165 2.70996 68.1095C2.70996 67.054 3.55695 66.207 4.61242 66.207Z" fill="#8B08F9"/>
    <path d="M77.9093 35.3376C76.2023 34.3863 74.2998 34.1909 72.3974 34.7642C70.7164 35.2724 69.3612 36.38 68.41 37.8134V32.2884C68.41 25.9947 63.3021 20.8867 57.0083 20.8867H39.8992C33.6055 20.8867 28.4975 25.9947 28.4975 32.2884V37.8134C27.5463 36.38 26.1911 35.2724 24.5102 34.7642C22.6077 34.1909 20.7053 34.3863 18.9983 35.3376C15.5843 37.24 14.4376 41.2274 16.1446 44.6544L22.7901 57.5807C24.4971 60.8123 27.7287 62.7147 31.3382 62.7147H36.0943V64.6172C36.0943 65.6726 36.9413 66.5196 37.9968 66.5196C39.0522 66.5196 39.8992 65.6726 39.8992 64.6172V62.7147H56.9953V64.6172C56.9953 65.6726 57.8423 66.5196 58.8977 66.5196C59.9532 66.5196 60.8002 65.6726 60.8002 64.6172V62.7147H65.5563C69.1658 62.7147 72.3974 60.8123 74.1044 57.5807L80.7499 44.6544C82.2745 41.2404 81.1278 37.24 77.8962 35.3376H77.9093ZM39.8992 24.6916H57.0083C61.2041 24.6916 64.6051 28.0926 64.6051 32.2884V45.1105C64.6051 45.2668 64.566 45.4232 64.5009 45.5665C63.8624 46.8566 62.5593 47.6775 61.126 47.6775H35.7946C34.3613 47.6775 33.0452 46.8566 32.4197 45.5665C32.3546 45.4232 32.3155 45.2668 32.3155 45.0974V32.2754C32.3155 28.0796 35.7164 24.6786 39.9123 24.6786L39.8992 24.6916ZM77.1405 42.9344L70.6773 55.8607C69.7261 57.7631 67.6412 58.8968 65.5433 58.8968H31.1688C28.8884 58.8968 26.986 57.7501 26.0347 55.8607L19.5716 42.9344C19.0374 41.7356 19.1546 40.5498 19.7931 39.6116C20.3013 38.8688 21.1483 38.4128 22.0344 38.2434C22.2298 38.2043 22.4253 38.1913 22.6077 38.1913H23.5589C24.3147 38.5691 25.0835 39.1425 25.4614 39.8983L30.1263 49.2151C30.7648 50.4921 32.0679 51.3 33.4882 51.3H63.2369C64.6572 51.3 65.9603 50.4921 66.5988 49.2151L71.2637 39.8983C71.6416 38.947 72.2149 38.3737 73.1662 38.1913C74.1174 37.9958 75.0686 38.1913 75.8244 38.5691C77.349 39.5204 77.9093 41.4228 77.1535 42.9344H77.1405Z" fill="#8B08F9"/>
    <path d="M11.4015 24.707C12.457 24.707 13.3039 25.554 13.3039 26.6095V66.522C13.3039 67.5775 12.457 68.4245 11.4015 68.4245C10.346 68.4245 9.49902 67.5775 9.49902 66.522V26.6095C9.49902 25.554 10.346 24.707 11.4015 24.707ZM38.0098 30.4144H58.9108C59.9663 30.4144 60.8132 31.2614 60.8132 32.3169C60.8132 33.3723 59.9663 34.2193 58.9108 34.2193H38.0098C36.9543 34.2193 36.1074 33.3723 36.1074 32.3169C36.1074 31.2614 36.9543 30.4144 38.0098 30.4144Z" fill="#8B08F9"/>
    <path d="M1.90234 1.90234H20.9009V24.7058H1.90234V1.90234Z" fill="#FF9D0B"/>
    <path d="M20.7837 26.6083H2.01973C0.912137 26.6083 0 25.7092 0 24.5886V2.01973C0 0.899106 0.899106 0 2.01973 0H20.7837C21.8913 0 22.8034 0.899106 22.8034 2.01973V24.5886C22.8034 25.6962 21.9043 26.6083 20.7837 26.6083ZM5.81162 22.8034H16.9918C18.0994 22.8034 19.0115 21.9043 19.0115 20.7837V5.81162C19.0115 4.70402 18.1124 3.79188 16.9918 3.79188H5.81162C4.70402 3.79188 3.79188 4.69099 3.79188 5.81162V20.7837C3.79188 21.8913 4.69099 22.8034 5.81162 22.8034Z" fill="#8B08F9"/>
    <path d="M9.49914 5.70703C10.5546 5.70703 11.4016 6.55402 11.4016 7.60949V11.4144C11.4016 12.4699 10.5546 13.3169 9.49914 13.3169C8.44366 13.3169 7.59668 12.4699 7.59668 11.4144V7.60949C7.59668 6.55402 8.44366 5.70703 9.49914 5.70703ZM13.3041 19.0112C14.3595 19.0112 15.2065 19.8582 15.2065 20.9137V22.8161C15.2065 23.8716 14.3595 24.7186 13.3041 24.7186C12.2486 24.7186 11.4016 23.8716 11.4016 22.8161V20.9137C11.4016 19.8582 12.2486 19.0112 13.3041 19.0112ZM55.106 49.4114C56.1615 49.4114 57.0084 50.2584 57.0084 51.3139V53.2163C57.0084 54.2718 56.1615 55.1188 55.106 55.1188C54.0505 55.1188 53.2035 54.2718 53.2035 53.2163V51.3139C53.2035 50.2584 54.0505 49.4114 55.106 49.4114ZM41.8018 49.4114C42.8573 49.4114 43.7043 50.2584 43.7043 51.3139V53.2163C43.7043 54.2718 42.8573 55.1188 41.8018 55.1188C40.7463 55.1188 39.8994 54.2718 39.8994 53.2163V51.3139C39.8994 50.2584 40.7463 49.4114 41.8018 49.4114Z" fill="#8B08F9"/>
  </g>
  <defs>
    <clipPath id="clip0_254_1987">
      <rect width="81.4278" height="70" fill="white"/>
    </clipPath>
  </defs>
</svg>
