<svg width="74" height="67" viewBox="0 0 74 67" fill="none" xmlns="http://www.w3.org/2000/svg">
  <g clip-path="url(#clip0_254_2132)">
    <path d="M1.78845 63.2227H69.6759C70.6681 63.2227 71.4643 64.0189 71.4643 65.0111C71.4643 66.0033 70.6681 66.7995 69.6759 66.7995H1.78845C0.796226 66.7995 0 66.0033 0 65.0111C0 64.0189 0.796226 63.2227 1.78845 63.2227Z" fill="#8B08F9"/>
    <path d="M26.8633 1.66797H56.3114L62.3015 8.31952H68.7938C70.7905 8.31952 72.4564 10.1447 72.1257 12.1414L70.6313 22.6271C70.129 25.959 67.2994 28.2864 63.9797 28.2864H54.8292L51.8281 38.7721L59.4841 54.9171L61.8115 59.9149H16.8799L28.5293 18.303L26.8633 1.66797Z" fill="white"/>
    <path d="M59.6074 61.5684H16.8685C15.7905 61.5684 15.0065 60.5395 15.2883 59.4982L26.4232 19.4175C26.6682 18.5355 27.5869 18.021 28.4689 18.2905L28.6526 18.3517C29.5101 18.609 30.0001 19.5032 29.7551 20.3607L19.6369 56.1663C19.3429 57.2076 20.1269 58.2488 21.2048 58.2488H57.2677C58.1497 58.2488 58.7254 57.3423 58.3579 56.5461L50.4202 39.5069C50.2487 39.1516 50.2242 38.7474 50.3344 38.3676L52.8824 29.5112C53.1274 28.6537 54.0093 28.1515 54.8668 28.3842C55.7488 28.6169 56.2755 29.5357 56.0183 30.4176L53.8256 38.0369C53.7153 38.4166 53.7521 38.8209 53.9236 39.1884L62.4003 57.1831C63.368 59.2288 61.8736 61.5929 59.6074 61.5929V61.5684Z" fill="#8B08F9"/>
    <path d="M64.1389 29.9509H46.8302C45.9115 29.9509 45.1642 29.2036 45.1642 28.2849C45.1642 27.3662 45.9115 26.619 46.8302 26.619H64.1389C66.6378 26.619 68.7938 24.7938 69.1367 22.2949L70.6312 11.8092C70.6312 11.3069 70.6312 10.8047 70.3005 10.474C69.9697 10.1432 69.4675 9.97173 68.9652 9.97173H62.3872C61.9095 9.97173 61.4685 9.77573 61.15 9.42049L56.1521 3.87141C55.8336 3.51617 55.3927 3.32018 54.9149 3.32018H28.5292C27.6105 3.32018 26.8633 2.57295 26.8633 1.65423C26.8633 0.735509 27.6105 -0.0117188 28.5292 -0.0117188H56.4094C56.8871 -0.0117188 57.3281 0.184275 57.6466 0.539514L62.6444 6.0886C62.9629 6.44383 63.4039 6.63983 63.8817 6.63983H68.9652C70.4597 6.63983 71.7949 7.30131 72.7871 8.30578C73.7794 9.31025 74.1223 10.8047 73.9508 12.2992L72.4564 22.7848C71.7949 26.9497 68.1323 29.9386 64.1389 29.9386V29.9509Z" fill="#8B08F9"/>
    <path d="M34.3605 21.6349C30.1956 21.6349 26.876 18.303 26.876 14.1503V1.66797H41.8573V14.1503C41.8573 18.3152 38.5254 21.6349 34.3727 21.6349H34.3605Z" fill="white"/>
    <path d="M31.9718 22.9803C27.9294 21.9023 25.21 18.0805 25.21 13.8911V2.64592C25.21 1.18821 26.3982 0 27.8559 0H40.865C42.3227 0 43.5109 1.18821 43.5109 2.64592V14.1483C43.5109 19.9179 37.9496 24.585 31.9718 22.9803ZM28.5419 5.81857V13.8666C28.5419 16.5982 30.3058 19.1217 32.9517 19.7954C36.6879 20.7386 40.1913 17.7742 40.1913 14.1483V5.81857C40.1913 4.44661 39.0765 3.3319 37.7046 3.3319H31.0408C29.6688 3.3319 28.5541 4.44661 28.5541 5.81857H28.5419Z" fill="#8B08F9"/>
    <path d="M56.8264 15.4731C58.0269 15.4731 58.9946 14.5054 58.9946 13.3049C58.9946 12.1044 58.0269 11.1367 56.8264 11.1367C55.6259 11.1367 54.6582 12.1044 54.6582 13.3049C54.6582 14.5054 55.6259 15.4731 56.8264 15.4731Z" fill="#8B08F9"/>
    <path d="M6.89648 45.7031H30.1953V59.0185L28.5293 62.3504H8.56243L6.89648 59.0185V45.7031Z" fill="#FF9D0B"/>
    <path d="M27.5248 64.0065H9.56684C8.34187 64.0065 7.21491 63.3083 6.66368 62.2058L5.94095 60.7603C5.47546 59.8294 5.23047 58.8004 5.23047 57.7469V44.0273H31.8612V57.7469C31.8612 58.7881 31.6162 59.8171 31.1507 60.7603L30.428 62.2058C29.8767 63.3083 28.7498 64.0065 27.5248 64.0065ZM11.1838 60.6746H25.9201C26.9123 60.6746 27.8188 60.1111 28.2598 59.2291C28.4435 58.8616 28.5415 58.4697 28.5415 58.0654V47.3715H8.56237V58.0654C8.56237 58.4697 8.66036 58.8739 8.84411 59.2291C9.2851 60.1111 10.1916 60.6746 11.1838 60.6746Z" fill="#8B08F9"/>
    <path d="M6.89648 39.0547H30.1953V45.7062H6.89648V39.0547Z" fill="#FF9D0B"/>
    <path d="M30.4525 47.3702H6.63918C5.86745 47.3702 5.23047 46.7454 5.23047 45.9615V38.7954C5.23047 38.0237 5.8552 37.3867 6.63918 37.3867H30.4525C31.2242 37.3867 31.8612 38.0114 31.8612 38.7954V45.9615C31.8612 46.7332 31.2364 47.3702 30.4525 47.3702ZM9.97108 44.0383H27.1328C27.9045 44.0383 28.5415 43.4135 28.5415 42.6296V42.1151C28.5415 41.3433 27.9168 40.7064 27.1328 40.7064H9.97108C9.19935 40.7064 8.56237 41.3311 8.56237 42.1151V42.6296C8.56237 43.4013 9.1871 44.0383 9.97108 44.0383Z" fill="#8B08F9"/>
    <path d="M18.5458 15.7539C19.4646 15.7539 20.2118 16.5011 20.2118 17.4199V37.3867C20.2118 38.3055 19.4646 39.0527 18.5458 39.0527C17.6271 39.0527 16.8799 38.3055 16.8799 37.3867V17.4199C16.8799 16.5011 17.6271 15.7539 18.5458 15.7539Z" fill="#8B08F9"/>
    <path d="M20.2121 34.0535H14.7243C8.56275 34.0535 3.57715 29.0679 3.57715 22.9063V18.0187C3.57715 17.688 3.84664 17.4062 4.18963 17.4062H9.07723C15.2388 17.4062 20.2244 22.3918 20.2244 28.5534V34.0412L20.2121 34.0535ZM6.8968 21.3506V22.9063C6.8968 27.2305 10.4002 30.7216 14.7121 30.7216H15.9615C16.4638 30.7216 16.868 30.3174 16.868 29.8151V28.5657C16.868 24.2415 13.3646 20.7504 9.05273 20.7504H7.49703C7.16629 20.7504 6.88455 21.0199 6.88455 21.3629L6.8968 21.3506Z" fill="#8B08F9"/>
    <path d="M71.9671 15.1424H73.4615V9.15234H65.977C65.977 12.4842 68.6352 15.1424 71.9671 15.1424ZM47.7128 36.6038H51.4245V39.9357H47.7128C46.7941 39.9357 46.0469 39.1884 46.0469 38.2697C46.0469 37.351 46.7941 36.6038 47.7128 36.6038Z" fill="#8B08F9"/>
  </g>
  <defs>
    <clipPath id="clip0_254_2132">
      <rect width="74" height="66.7972" fill="white"/>
    </clipPath>
  </defs>
</svg>
