<svg width="74" height="68" viewBox="0 0 74 68" fill="none" xmlns="http://www.w3.org/2000/svg">
  <g clip-path="url(#clip0_254_2051)">
    <path d="M1.85222 63.5352H72.1605C73.1881 63.5352 74.0127 64.3598 74.0127 65.3874C74.0127 66.415 73.1881 67.2396 72.1605 67.2396H1.85222C0.824619 67.2396 0 66.415 0 65.3874C0 64.3598 0.824619 63.5352 1.85222 63.5352Z" fill="#8B08F9"/>
    <path d="M71.2213 63.5352H2.778C1.75505 63.5352 0.925781 64.3644 0.925781 65.3874C0.925781 66.4103 1.75505 67.2396 2.778 67.2396H71.2213C72.2443 67.2396 73.0736 66.4103 73.0736 65.3874C73.0736 64.3644 72.2443 63.5352 71.2213 63.5352Z" fill="#8B08F9"/>
    <path d="M11.9883 8.62702L37.8432 1.73828V65.513H11.9883V8.62702Z" fill="white"/>
    <path d="M39.5684 67.2395H10.2627V7.25798L37.4624 0.0520785C38.5281 -0.227023 39.5684 0.572223 39.5684 1.67594V67.2395ZM13.7134 63.7887H36.1177V3.98487L13.7134 10.0109V63.7887Z" fill="#8B08F9"/>
    <path d="M37.8428 12.0781L63.6977 17.2542V65.5134H37.8428V12.0781Z" fill="white"/>
    <path d="M65.4229 67.2402H36.1172V10.0117L65.4229 15.8729V67.2402ZM39.5679 63.7895H61.9721V18.6258L39.5679 14.1475V63.7895Z" fill="#8B08F9"/>
    <path d="M22.3271 37.9336H46.4568L48.1821 43.1097L46.4568 48.2857H22.3271" fill="#FF9D0B"/>
    <path d="M46.4441 49.9982H24.0525C23.101 49.9982 22.3271 49.2243 22.3271 48.2728C22.3271 47.3213 23.101 46.5474 24.0525 46.5474H43.9702C44.7314 46.5474 45.4038 46.0527 45.6194 45.3169L46.1396 43.5915C46.2411 43.2743 46.2411 42.9191 46.1396 42.602L45.6194 40.8766C45.4038 40.1535 44.7314 39.646 43.9702 39.646H24.0525C23.101 39.646 22.3271 38.8721 22.3271 37.9207C22.3271 36.9692 23.101 36.1953 24.0525 36.1953H46.4441C47.1799 36.1953 47.8269 36.652 48.0679 37.3498L49.8821 42.5258C50.009 42.8938 50.009 43.2997 49.8821 43.6676L48.0679 48.8437C47.8269 49.5288 47.1799 49.9982 46.4441 49.9982Z" fill="#8B08F9"/>
    <path d="M13.7135 53.4484C19.4224 53.4484 24.0529 48.8179 24.0529 43.109C24.0529 37.4001 19.4224 32.7695 13.7135 32.7695C8.00457 32.7695 3.37402 37.4001 3.37402 43.109C3.37402 48.8179 8.00457 53.4484 13.7135 53.4484Z" fill="#FF9D0B"/>
    <path d="M13.7132 55.1765C6.98943 55.1765 1.64844 49.8355 1.64844 43.1117C1.64844 36.3879 6.98943 31.0469 13.7132 31.0469C20.4371 31.0469 25.778 36.3879 25.778 43.1117C25.778 49.8355 20.4371 55.1765 13.7132 55.1765ZM13.7132 34.4976C8.8924 34.4976 5.09915 38.2908 5.09915 43.1117C5.09915 47.9325 8.8924 51.7258 13.7132 51.7258C18.5341 51.7258 22.3273 47.9325 22.3273 43.1117C22.3273 38.2908 18.5341 34.4976 13.7132 34.4976Z" fill="#8B08F9"/>
    <path d="M13.7134 46.546C15.6164 46.546 17.1641 44.9982 17.1641 43.0952C17.1641 41.1923 15.6164 39.6445 13.7134 39.6445C11.8104 39.6445 10.2627 41.1923 10.2627 43.0952C10.2627 44.9982 11.8104 46.546 13.7134 46.546Z" fill="#8B08F9"/>
    <path d="M32.6792 43.1082C32.6792 42.1553 31.9068 41.3828 30.9539 41.3828C30.001 41.3828 29.2285 42.1553 29.2285 43.1082V46.5462C29.2285 47.4991 30.001 48.2715 30.9539 48.2715C31.9068 48.2715 32.6792 47.4991 32.6792 46.5462V43.1082Z" fill="#8B08F9"/>
    <path d="M39.5679 44.8347C39.5679 43.8818 38.7954 43.1094 37.8425 43.1094C36.8897 43.1094 36.1172 43.8818 36.1172 44.8347V46.5601C36.1172 47.513 36.8897 48.2854 37.8425 48.2854C38.7954 48.2854 39.5679 47.513 39.5679 46.5601V44.8347Z" fill="#8B08F9"/>
    <path d="M46.4693 20.6914H44.7439C43.791 20.6914 43.0186 21.4639 43.0186 22.4168C43.0186 23.3697 43.791 24.1421 44.7439 24.1421H46.4693C47.4222 24.1421 48.1946 23.3697 48.1946 22.4168C48.1946 21.4639 47.4222 20.6914 46.4693 20.6914Z" fill="#8B08F9"/>
    <path d="M30.9536 10.3516H29.2283C28.2754 10.3516 27.5029 11.124 27.5029 12.0769C27.5029 13.0298 28.2754 13.8023 29.2283 13.8023H30.9536C31.9065 13.8023 32.679 13.0298 32.679 12.0769C32.679 11.124 31.9065 10.3516 30.9536 10.3516Z" fill="#8B08F9"/>
    <path d="M30.9542 17.2539H18.8894C17.9365 17.2539 17.1641 18.0264 17.1641 18.9793C17.1641 19.9321 17.9365 20.7046 18.8894 20.7046H30.9542C31.9071 20.7046 32.6796 19.9321 32.6796 18.9793C32.6796 18.0264 31.9071 17.2539 30.9542 17.2539Z" fill="#8B08F9"/>
    <path d="M29.2289 17.2539H30.9542C31.9057 17.2539 32.6796 18.0278 32.6796 18.9793C32.6796 19.9307 31.9057 20.7046 30.9542 20.7046H29.2289C28.2774 20.7046 27.5035 19.9307 27.5035 18.9793C27.5035 18.0278 28.2774 17.2539 29.2289 17.2539ZM18.8894 24.1426H30.9542C31.9057 24.1426 32.6796 24.9165 32.6796 25.868C32.6796 26.8195 31.9057 27.5934 30.9542 27.5934H18.8894C17.9379 27.5934 17.1641 26.8195 17.1641 25.868C17.1641 24.9165 17.9379 24.1426 18.8894 24.1426Z" fill="#8B08F9"/>
    <path d="M29.2289 24.1445H30.9542C31.9057 24.1445 32.6796 24.9184 32.6796 25.8699C32.6796 26.8214 31.9057 27.5952 30.9542 27.5952H29.2289C28.2774 27.5952 27.5035 26.8214 27.5035 25.8699C27.5035 24.9184 28.2774 24.1445 29.2289 24.1445ZM44.7444 27.5952H56.8092C57.7607 27.5952 58.5345 28.3691 58.5345 29.3206C58.5345 30.2721 57.7607 31.046 56.8092 31.046H44.7444C43.7929 31.046 43.019 30.2721 43.019 29.3206C43.019 28.3691 43.7929 27.5952 44.7444 27.5952ZM44.7444 56.9009H56.8092C57.7607 56.9009 58.5345 57.6748 58.5345 58.6263C58.5345 59.5777 57.7607 60.3516 56.8092 60.3516H44.7444C43.7929 60.3516 43.019 59.5777 43.019 58.6263C43.019 57.6748 43.7929 56.9009 44.7444 56.9009ZM18.8894 56.9009H30.9542C31.9057 56.9009 32.6796 57.6748 32.6796 58.6263C32.6796 59.5777 31.9057 60.3516 30.9542 60.3516H18.8894C17.9379 60.3516 17.1641 59.5777 17.1641 58.6263C17.1641 57.6748 17.9379 56.9009 18.8894 56.9009Z" fill="#8B08F9"/>
    <path d="M37.8428 12.0801C38.0331 11.1413 38.9338 10.5451 39.8726 10.7227L70.9671 16.939C71.9059 17.1293 72.5021 18.0301 72.3245 18.9688C72.1342 19.9076 71.2335 20.5039 70.2947 20.3263L39.2002 14.1099C38.2614 13.9196 37.6652 13.0189 37.8428 12.0801Z" fill="#8B08F9"/>
    <path d="M6.36762 8.24784L35.6987 0.521799C36.6248 0.280757 37.5636 0.826274 37.8046 1.75238C38.0457 2.67849 37.5001 3.61729 36.574 3.85833L7.24298 11.5844C6.31687 11.8254 5.37808 11.2799 5.13703 10.3538C4.89599 9.42768 5.44151 8.48888 6.36762 8.24784Z" fill="#8B08F9"/>
  </g>
  <defs>
    <clipPath id="clip0_254_2051">
      <rect width="74" height="67.2381" fill="white"/>
    </clipPath>
  </defs>
</svg>
