<svg width="75" height="70" viewBox="0 0 75 70" fill="none" xmlns="http://www.w3.org/2000/svg">
  <g clip-path="url(#clip0_254_2116)">
    <path d="M2.38144 66.332H72.2051C73.2256 66.332 74.0445 67.151 74.0445 68.1715C74.0445 69.192 73.2256 70.0109 72.2051 70.0109H2.38144C1.36093 70.0109 0.541992 69.192 0.541992 68.1715C0.541992 67.151 1.36093 66.332 2.38144 66.332Z" fill="#8B08F9"/>
    <path d="M60.4251 62.9699H13.2041V9.0966C13.2041 6.99257 14.9554 5.25391 17.0468 5.25391H60.4251V62.9699Z" fill="white"/>
    <path d="M62.1893 3.48828H17.0471C13.9099 3.48828 11.4531 5.93249 11.4531 9.09483V64.7068H65.0744C67.3423 64.7068 69.1817 62.8673 69.1817 60.5995V7.59555C69.1817 5.32773 67.3423 3.48828 65.0744 3.48828H62.1893ZM18.4582 61.2169H14.9556V9.09483C14.9556 7.93572 15.9006 6.9908 17.0597 6.9908H57.2127C58.0316 6.9908 58.6867 7.65855 58.6867 8.46488V59.7428C58.6867 60.5617 58.019 61.2169 57.2127 61.2169H18.4582ZM63.9279 61.2169C62.9704 61.2169 62.1767 60.4357 62.1767 59.4656V8.74206C62.1767 7.78454 62.9578 6.9908 63.9279 6.9908C64.8854 6.9908 65.6792 7.77194 65.6792 8.74206V59.4782C65.6792 60.4357 64.898 61.2295 63.9279 61.2295V61.2169Z" fill="#8B08F9"/>
    <path d="M24.0515 66.4604C36.4111 66.4604 46.4399 56.4316 46.4399 44.072C46.4399 31.7124 36.4111 21.6836 24.0515 21.6836C11.6919 21.6836 1.66309 31.7124 1.66309 44.072C1.66309 56.4316 11.6919 66.4604 24.0515 66.4604Z" fill="#FF9D0B"/>
    <path d="M24.0519 68.2116C17.576 68.2116 11.6293 65.7674 7.08107 61.2191C-2.36817 51.7699 -2.36817 36.5629 7.08107 27.2901C16.5303 17.8408 31.7373 17.8408 41.0102 27.2901C45.5584 31.8383 48.0026 37.9614 48.0026 44.2609C48.0026 50.5604 45.5584 56.6835 41.0102 61.2317C36.6383 65.78 30.5152 68.2242 24.0393 68.2242L24.0519 68.2116ZM24.0519 23.6112C18.8107 23.6112 13.557 25.5388 9.53788 29.5579C1.48712 37.6086 1.48712 50.5478 9.53788 58.5986C13.3806 62.4412 18.6343 64.5453 24.0519 64.5453C29.4695 64.5453 34.7233 62.4412 38.566 58.5986C42.4086 54.7559 44.5127 49.5021 44.5127 44.0845C44.5127 38.667 42.4086 33.4132 38.566 29.5705C34.7233 25.5514 29.4695 23.6238 24.0519 23.6238V23.6112Z" fill="#8B08F9"/>
    <path d="M39.9647 28.3353C35.5928 23.9634 29.8225 21.8594 24.2285 21.8594C24.2285 27.6297 26.3325 33.2237 30.7044 37.5955C35.0762 41.9674 40.8466 44.0714 46.4405 44.0714C46.4405 38.4774 44.3365 32.7071 39.9647 28.3353Z" fill="#FF9D0B"/>
    <path d="M46.1254 45.9997C39.6495 45.9997 33.7028 43.5555 29.1545 39.0073C24.6063 34.459 22.1621 28.3359 22.1621 22.0364V20.2852H23.9134C30.3892 20.2852 36.336 22.7294 40.8842 27.2776C45.4324 31.8258 47.8766 37.9489 47.8766 44.2484V45.9997H46.1254ZM25.6646 23.6113C26.0174 28.5123 28.1088 32.8841 31.6114 36.3741C35.1139 39.864 39.4857 41.968 44.3741 42.3208C44.0214 37.4198 41.9299 33.0479 38.4274 29.558C34.9249 26.2319 30.3767 24.1404 25.6646 23.6113Z" fill="#8B08F9"/>
    <path d="M17.576 50.722C13.2041 46.3501 7.4338 44.2461 1.83984 44.2461C1.83984 50.0164 3.94388 55.6104 8.31573 59.9822C12.6876 64.3541 18.4579 66.4581 24.0519 66.4581C24.2283 60.6878 21.9478 55.0938 17.576 50.722Z" fill="#FF9D0B"/>
    <path d="M24.0521 68.0349C17.5763 68.0349 11.6295 65.5907 7.08131 61.0424C2.54567 56.4942 0.0888672 50.3711 0.0888672 44.0716V42.3203H1.84013C8.31601 42.3203 14.2627 44.7645 18.811 49.3128C23.3592 53.861 25.8034 59.9841 25.8034 66.2836V68.0349H24.0521C24.1697 68.0349 24.1697 68.0349 24.0521 68.0349ZM3.59139 45.8228C4.12054 50.5475 6.21198 55.0957 9.53811 58.5856C13.0406 62.0881 17.4125 64.1796 22.3009 64.5323C21.9481 59.6313 19.8567 55.2595 16.3542 51.7696C13.028 48.267 8.4798 46.1756 3.59139 45.8228Z" fill="#8B08F9"/>
    <path d="M53.4331 19.2374L46.4407 15.7349L39.4482 19.2374V3.50126C39.4482 2.45554 40.1538 1.75 41.1995 1.75H51.6945C52.7402 1.75 53.4457 2.45554 53.4457 3.50126V19.2374H53.4331Z" fill="white"/>
    <path d="M53.571 21.2293L47.5487 18.2181C46.8432 17.8654 46.0242 17.8654 45.3313 18.2181L39.309 21.2293C38.5656 21.5947 37.6963 21.0655 37.6963 20.234V3.50252C37.6963 1.57487 39.2712 0 41.1988 0H51.6938C53.6214 0 55.1963 1.57487 55.1963 3.50252V20.234C55.1963 21.0655 54.327 21.6073 53.5836 21.2293H53.571ZM47.7629 14.4762L51.6812 16.4417V3.50252H41.1862V16.4417L45.1045 14.4762C45.936 14.0605 46.9188 14.0605 47.7503 14.4762H47.7629Z" fill="#8B08F9"/>
    <path d="M8.00098 29.9967L10.4704 27.5273L40.1536 57.2106L37.6842 59.68L8.00098 29.9967Z" fill="#8B08F9"/>
  </g>
  <defs>
    <clipPath id="clip0_254_2116">
      <rect width="74.0443" height="70" fill="white"/>
    </clipPath>
  </defs>
</svg>
