<svg width="85" height="70" viewBox="0 0 85 70" fill="none" xmlns="http://www.w3.org/2000/svg">
  <g clip-path="url(#clip0_254_1997)">
    <path d="M5.78475 66.1445H78.9678C80.0376 66.1445 80.8961 67.003 80.8961 68.0728C80.8961 69.1426 80.0376 70.0011 78.9678 70.0011H5.78475C4.71494 70.0011 3.85645 69.1426 3.85645 68.0728C3.85645 67.003 4.71494 66.1445 5.78475 66.1445Z" fill="#8B08F9"/>
    <path d="M80.8959 32.743H71.2676V25.043H80.8959C82.0581 25.043 82.8242 25.809 82.8242 26.9713V30.8279C82.8242 31.9901 82.0581 32.7562 80.8959 32.7562V32.743Z" fill="white"/>
    <path d="M80.8964 34.6699H69.3398V23.1133H80.8964C83.0097 23.1133 84.753 24.8435 84.753 26.9699V30.8265C84.753 32.9397 83.0229 34.6831 80.8964 34.6831V34.6699ZM73.1964 30.8133H80.8964V26.9567H73.1964V30.8133Z" fill="#8B08F9"/>
    <path d="M3.85701 32.743H13.4853V25.043H3.85701C2.69475 25.043 1.92871 25.809 1.92871 26.9713V30.8279C1.92871 31.9901 2.69475 32.7562 3.85701 32.7562V32.743Z" fill="white"/>
    <path d="M15.4132 34.6714H3.8566C1.7434 34.6714 0 32.9412 0 30.8148V26.9582C0 24.845 1.73019 23.1016 3.8566 23.1016H15.4132V34.6582V34.6714ZM3.8566 26.9714V30.828H11.5566V26.9714H3.8566Z" fill="#8B08F9"/>
    <path d="M13.4851 25.0429L17.1436 8.86365C18.4908 4.62403 22.1493 1.92969 26.3889 1.92969H58.3643C62.604 1.92969 66.4474 4.62403 67.6096 8.86365L71.2681 25.0429L77.053 32.7429V52.1976C77.053 55.275 74.5436 57.7844 71.4662 57.7844H13.287C10.2096 57.7844 7.7002 55.275 7.7002 52.1976V32.7429L13.4851 25.0429Z" fill="white"/>
    <path d="M71.4526 59.7113H13.2866C9.04696 59.7113 5.77148 56.4358 5.77148 52.1962V32.1604L11.7413 24.2623L15.3998 8.46604C16.7602 3.27547 21.1847 0 26.3885 0H58.3639C63.5677 0 67.9922 3.27547 69.3394 8.28113L72.9979 24.2623L78.9677 32.1604V52.3811C78.9677 56.4226 75.6922 59.6981 71.4526 59.6981V59.7113ZM9.62809 33.3226V52.1962C9.62809 54.1245 11.1734 55.8547 13.2866 55.8547H71.6507C73.579 55.8547 75.3092 54.3094 75.3092 52.1962V33.3226L69.7224 25.8075L65.8658 9.24528C64.9017 6.16792 62.0092 3.8566 58.5488 3.8566H26.3885C22.9281 3.8566 20.0356 5.96981 19.0715 9.4434L15.2149 26.0057L9.62809 33.3226Z" fill="#8B08F9"/>
    <path d="M13.4849 57.7812H23.1132V62.602C23.1132 65.2963 21 67.4228 18.2924 67.4228C15.5849 67.4228 13.4717 65.3096 13.4717 62.602V57.7812H13.4849Z" fill="white"/>
    <path d="M18.2925 69.3389C14.634 69.3389 11.5566 66.2615 11.5566 62.603V55.8672H25.0415V62.603C25.0415 66.2615 21.9642 69.3389 18.3057 69.3389H18.2925ZM15.4 59.7106V62.603C15.4 64.1483 16.7472 65.4955 18.2925 65.4955C19.8378 65.4955 21.1849 64.1483 21.1849 62.603V59.7106H15.4Z" fill="#8B08F9"/>
    <path d="M61.6392 57.7812H71.2675V62.602C71.2675 65.2963 69.1543 67.4228 66.4467 67.4228C63.7392 67.4228 61.626 65.3096 61.626 62.602V57.7812H61.6392Z" fill="white"/>
    <path d="M66.4468 69.3389C62.7883 69.3389 59.7109 66.2615 59.7109 62.603V55.8672H73.1958V62.603C73.1958 66.2615 70.1185 69.3389 66.46 69.3389H66.4468ZM63.5543 59.7106V62.603C63.5543 64.1483 64.9015 65.4955 66.4468 65.4955C67.9921 65.4955 69.3392 64.1483 69.3392 62.603V59.7106H63.5543Z" fill="#8B08F9"/>
    <path d="M42.3698 52.1959C33.9566 52.1959 25.3849 51.5355 16.9585 50.36C15.8886 50.2147 15.149 49.211 15.3075 48.1412C15.466 47.0846 16.4566 46.3713 17.5132 46.5298C33.9698 49.0129 50.5849 49.0129 67.0283 46.5298C68.0849 46.3713 69.0754 47.0846 69.2339 48.1412V48.1808C69.3924 49.2374 68.6792 50.228 67.6358 50.3864C59.3547 51.694 50.783 52.1959 42.3698 52.1959Z" fill="#8B08F9"/>
    <path d="M9.62865 42.3706V38.514H19.257V37.9329C19.257 36.9687 18.4909 36.2027 17.7117 36.0046L9.23242 34.6574L9.81355 30.8008L18.0947 32.148C20.9871 32.531 22.9154 35.0404 22.9154 37.9329V41.5517C22.9154 42.0008 22.5456 42.3706 22.0966 42.3706H9.62865Z" fill="#8B08F9"/>
    <path d="M77.0396 42.3691H64.3868C63.9245 42.3691 63.5547 41.9993 63.5547 41.537V37.9446C63.5547 35.0521 65.6679 32.7408 68.3754 32.1597L76.6566 30.8125L77.2377 34.6691L68.9566 36.0163C67.9924 36.2144 67.4113 36.9804 67.4113 37.9446V38.5257H77.0396V42.3823V42.3691Z" fill="#8B08F9"/>
    <path d="M34.6701 36.6002C34.6701 35.5352 33.8068 34.6719 32.7418 34.6719C31.6768 34.6719 30.8135 35.5352 30.8135 36.6002V40.4436C30.8135 41.5085 31.6768 42.3719 32.7418 42.3719C33.8068 42.3719 34.6701 41.5085 34.6701 40.4436V36.6002Z" fill="#8B08F9"/>
    <path d="M44.298 36.5963C44.298 35.5313 43.4347 34.668 42.3697 34.668C41.3047 34.668 40.4414 35.5313 40.4414 36.5963V40.4397C40.4414 41.5046 41.3047 42.368 42.3697 42.368C43.4347 42.368 44.298 41.5046 44.298 40.4397V36.5963Z" fill="#8B08F9"/>
    <path d="M71.2679 25.0429L57.783 26.9712H19.2566L13.4717 25.0429L17.1302 8.86365C18.4773 4.62403 22.1358 1.92969 26.3755 1.92969H58.3509C62.5905 1.92969 66.4339 4.62403 67.5962 8.86365L71.2547 25.0429H71.2679Z" fill="#FF9D0B"/>
    <path d="M57.9814 28.8849H18.8738L11.1738 26.3755L15.2153 8.46604C16.7606 3.27547 21.1851 0 26.3889 0H58.3644C63.5682 0 67.9927 3.27547 69.3399 8.28113L73.5795 26.7717L57.9814 28.8849ZM19.6531 25.0283H57.7965L69.155 23.483L65.8795 9.23208C64.9153 6.15472 62.0229 3.8434 58.5625 3.8434H26.3889C22.9285 3.8434 20.0361 5.9566 19.0719 9.43019L15.7965 23.8792L19.6531 25.0415V25.0283Z" fill="#8B08F9"/>
    <path d="M52.0111 34.6716C53.0809 34.6716 53.9394 35.53 53.9394 36.5999V40.4565C53.9394 41.5263 53.0809 42.3848 52.0111 42.3848C50.9413 42.3848 50.0828 41.5263 50.0828 40.4565V36.5999C50.0828 35.53 50.9413 34.6716 52.0111 34.6716ZM40.4545 5.77344H44.3111C45.3809 5.77344 46.2394 6.63193 46.2394 7.70174C46.2394 8.77155 45.3809 9.63004 44.3111 9.63004H40.4545C39.3846 9.63004 38.5262 8.77155 38.5262 7.70174C38.5262 6.63193 39.3846 5.77344 40.4545 5.77344ZM57.8488 28.8866H19.2035C18.979 28.8866 18.7677 28.847 18.5563 28.781L14.6205 27.381C13.6696 27.0376 13.1545 25.9942 13.4714 25.03C13.7884 24.0659 14.8186 23.5376 15.796 23.8414L19.362 24.9508C19.5469 25.0036 19.745 25.0432 19.9299 25.0432H57.4394C57.5318 25.0432 57.6243 25.0432 57.7167 25.03L69.0752 23.4055C70.1582 23.247 71.1488 24.0263 71.2677 25.1225C71.3733 26.1659 70.6469 27.0904 69.6299 27.2357L58.1129 28.8866C58.0205 28.8866 57.928 28.8998 57.8356 28.8998L57.8488 28.8866Z" fill="#8B08F9"/>
    <path d="M59.7116 26.9695H55.855C55.855 24.8563 54.1248 23.1129 51.9984 23.1129C49.8719 23.1129 48.1418 24.8431 48.1418 26.9695H44.2852C44.2852 22.7299 47.7455 19.2695 51.9852 19.2695C56.2248 19.2695 59.6852 22.7299 59.6852 26.9695H59.7116Z" fill="#8B08F9"/>
  </g>
  <defs>
    <clipPath id="clip0_254_1997">
      <rect width="84.7528" height="70" fill="white"/>
    </clipPath>
  </defs>
</svg>
