<svg width="74" height="65" viewBox="0 0 74 65" fill="none" xmlns="http://www.w3.org/2000/svg">
  <g clip-path="url(#clip0_254_2076)">
    <path d="M1.85222 61.25H72.1605C73.1881 61.25 74.0127 62.0746 74.0127 63.1022C74.0127 64.1298 73.1881 64.9544 72.1605 64.9544H1.85222C0.824619 64.9544 0 64.1298 0 63.1022C0 62.0746 0.824619 61.25 1.85222 61.25Z" fill="#8B08F9"/>
    <path d="M62.6583 6.68575H37.907V3.17161C37.907 1.497 36.5749 0 34.7354 0H24.5355C22.8609 0 21.3639 1.33208 21.3639 3.17161V6.68575H3.2984C2.182 6.68575 1.29395 7.58649 1.29395 8.69021V42.1444C1.29395 45.6585 4.13571 48.5003 7.64985 48.5003H58.1546C61.8336 48.5003 64.8403 45.4809 64.8403 41.8145V8.88051C64.8403 7.66261 63.8635 6.68575 62.6583 6.68575ZM24.5355 3.33653H34.7354V6.68575H24.7004L24.5355 3.33653ZM54.6404 42.1444C54.6404 43.8063 53.283 45.151 51.621 45.151H7.9797C6.12748 45.151 4.63048 43.654 4.63048 41.8145V31.0183C5.53122 31.5004 6.55882 31.7795 7.64985 31.7795H24.9795C25.6392 33.7586 27.4788 35.1161 29.7243 35.1161C31.9698 35.1161 33.7966 33.7586 34.4563 31.7795H51.7987C52.8136 31.7795 53.7777 31.5258 54.6404 31.1071V42.1444ZM31.3989 28.4303V30.1049C31.3989 31.1071 30.7265 31.7795 29.7243 31.7795C28.722 31.7795 28.0496 31.1071 28.0496 30.1049V25.0811C28.0496 24.0789 28.7093 23.4065 29.7243 23.4065C30.7392 23.4065 31.3989 24.0789 31.3989 25.0811V28.4303ZM54.6404 25.4109C54.6404 27.0729 53.283 28.4303 51.621 28.4303H34.7227V25.0811C34.7227 22.2393 32.5533 20.0699 29.7116 20.0699C26.8698 20.0699 24.6877 22.2393 24.6877 25.0811V28.4303H7.64985C5.98793 28.4303 4.63048 27.0729 4.63048 25.4109V12.0394C4.63048 10.923 5.53122 10.035 6.63494 10.035H54.6404V25.4109ZM61.5038 41.8145C61.5038 43.654 59.9941 45.151 58.1546 45.151C57.8755 45.151 57.6598 44.9354 57.6598 44.6689C57.6598 44.6055 57.6598 44.5548 57.6979 44.4913C57.9896 43.7682 58.1546 42.969 58.1546 42.1444V11.7096C58.1546 10.7835 58.9031 10.035 59.8292 10.035C60.7553 10.035 61.5038 10.7835 61.5038 11.7096V41.8145Z" fill="#8B08F9"/>
    <path d="M55.1355 62.1264C63.8257 62.1264 70.8667 55.0855 70.8667 46.3952C70.8667 37.705 63.8257 30.6641 55.1355 30.6641C46.4453 30.6641 39.4043 37.705 39.4043 46.3952C39.4043 55.0855 46.4453 62.1264 55.1355 62.1264Z" fill="#FF9D0B"/>
    <path d="M55.1352 63.9774C45.5188 63.9774 37.5645 56.023 37.5645 46.4067C37.5645 36.7903 45.5188 28.8359 55.1352 28.8359C64.7515 28.8359 72.7059 36.7903 72.7059 46.4067C72.7059 56.023 64.7515 63.9774 55.1352 63.9774ZM55.1352 32.5277C47.5487 32.5277 41.2562 38.8202 41.2562 46.4067C41.2562 53.9932 47.5487 60.2856 55.1352 60.2856C62.7217 60.2856 69.0141 53.9932 69.0141 46.4067C69.0141 38.8202 62.7217 32.5277 55.1352 32.5277Z" fill="#8B08F9"/>
    <path d="M59.7653 49.1713H54.4497C53.2952 49.1713 52.3564 48.2325 52.3564 47.078V41.7624C52.3564 40.7348 53.1811 39.9102 54.2087 39.9102C55.2363 39.9102 56.0609 40.7348 56.0609 41.7624V45.4668H59.7653C60.7929 45.4668 61.6175 46.2914 61.6175 47.319C61.6175 48.3466 60.7929 49.1713 59.7653 49.1713Z" fill="#8B08F9"/>
  </g>
  <defs>
    <clipPath id="clip0_254_2076">
      <rect width="74" height="64.9546" fill="white"/>
    </clipPath>
  </defs>
</svg>
