<svg width="33" height="38" viewBox="0 0 33 38" fill="none" xmlns="http://www.w3.org/2000/svg">
  <path d="M0 37.3079C0 37.4817 0.192422 37.5997 0.345531 37.5138C5.52186 34.5405 10.6945 31.5617 15.8635 28.5773C16.1411 28.4167 16.3389 28.396 16.6315 28.5645C21.7805 31.5338 26.9315 34.5001 32.0846 37.4636C32.2684 37.5703 32.5 37.4353 32.5 37.2249V3.72718C32.5 1.71402 30.8457 0.0820312 28.805 0.0820312H3.695C1.65431 0.0820312 0 1.71403 0 3.72719V37.3079Z" fill="#FF9D0B"/>
  <path d="M11.5036 19.9317L8.78906 13.7617H9.74093L12.2352 19.4557H11.6887L14.2006 13.7617H15.0819L12.3762 19.9317H11.5036Z" fill="white"/>
  <path d="M15.8687 19.9317V13.7617H16.75V19.9317H15.8687Z" fill="white"/>
  <path d="M18.5971 19.9317V13.7617H21.0032C21.5438 13.7617 22.005 13.8469 22.3869 14.0173C22.7689 14.1877 23.0626 14.4345 23.2683 14.7577C23.4739 15.0809 23.5768 15.4658 23.5768 15.9124C23.5768 16.359 23.4739 16.7439 23.2683 17.0671C23.0626 17.3844 22.7689 17.6312 22.3869 17.8074C22.005 17.9779 21.5438 18.0631 21.0032 18.0631H19.0819L19.4785 17.6488V19.9317H18.5971ZM19.4785 17.7369L19.0819 17.2962H20.9768C21.5408 17.2962 21.9668 17.1758 22.2547 16.9348C22.5485 16.6939 22.6954 16.3531 22.6954 15.9124C22.6954 15.4717 22.5485 15.1309 22.2547 14.8899C21.9668 14.649 21.5408 14.5286 20.9768 14.5286H19.0819L19.4785 14.0878V17.7369Z" fill="white"/>
</svg>
