<svg width="32" height="32" viewBox="0 0 32 32" fill="none" xmlns="http://www.w3.org/2000/svg">
  <g>
    <g>
      <rect width="32" height="32" rx="5" fill="#8B08F9"/>
      <path d="M13.0647 26.6671V11.2724C13.0647 9.7438 13.5103 8.52459 14.4015 7.61473C15.3108 6.68668 16.6021 6.22266 18.2753 6.22266C18.8755 6.22266 19.4393 6.28635 19.9667 6.41373C20.5123 6.54111 20.967 6.74127 21.3307 7.01423L20.4032 9.58002C20.1486 9.37985 19.8576 9.23428 19.5302 9.14329C19.2029 9.03411 18.8664 8.97952 18.5208 8.97952C17.8116 8.97952 17.275 9.17969 16.9113 9.58002C16.5476 9.96216 16.3657 10.5445 16.3657 11.3269V12.9647L16.4748 14.4932V26.6671H13.0647ZM10.6641 14.93V12.2004H20.3759V14.93H10.6641Z" fill="white"/>
    </g>
  </g>
</svg>
