<svg width="32" height="32" viewBox="0 0 32 32" fill="none" xmlns="http://www.w3.org/2000/svg">
  <g>
    <path id="Vector" d="M4.57143 0H27.4286C29.9429 0 32 2.05714 32 4.57143V27.4286C32 29.9429 29.9429 32 27.4286 32H4.57143C2.05714 32 0 29.9429 0 27.4286V4.57143C0 2.05714 2.05714 0 4.57143 0Z" fill="#8B08F9"/>
    <g>
      <path d="M21.6472 9.27734C21.0072 9.27734 20.3672 9.81068 20.3672 10.5573C20.3672 11.304 20.9005 11.8373 21.6472 11.8373C22.3939 11.8373 22.9272 11.304 22.9272 10.5573C22.8205 9.81068 22.2872 9.27734 21.6472 9.27734Z" fill="white"/>
      <path d="M15.9923 10.8789C13.1123 10.8789 10.7656 13.2256 10.7656 16.1056C10.7656 18.9856 13.1123 21.3322 15.9923 21.3322C18.8723 21.3322 21.219 18.9856 21.219 16.1056C21.3256 13.2256 18.979 10.8789 15.9923 10.8789ZM15.9923 19.5189C14.179 19.5189 12.579 18.0256 12.579 16.1056C12.579 14.2922 14.0723 12.6922 15.9923 12.6922C17.8056 12.6922 19.4056 14.1856 19.4056 16.1056C19.4056 18.0256 17.9123 19.5189 15.9923 19.5189Z" fill="white"/>
      <path d="M20.2615 5.33203H11.7281C8.20813 5.33203 5.32812 8.21203 5.32812 11.732V20.2654C5.32812 23.7854 8.20813 26.6654 11.7281 26.6654H20.2615C23.7815 26.6654 26.6615 23.7854 26.6615 20.2654V11.732C26.6615 8.21203 23.7815 5.33203 20.2615 5.33203ZM24.6348 20.2654C24.6348 22.7187 22.6081 24.6387 20.2615 24.6387H11.7281C9.27479 24.6387 7.35479 22.612 7.35479 20.2654V11.732C7.35479 9.2787 9.38146 7.3587 11.7281 7.3587H20.2615C22.7148 7.3587 24.6348 9.38537 24.6348 11.732V20.2654Z" fill="white"/>
    </g>
  </g>
</svg>
