<svg
  height="384"
  width="895"
  xmlns="http://www.w3.org/2000/svg"
  fill="currentColor"
  viewBox="0 0 895 384"
  stroke="currentColor"
>
  <path d="M124.12 254.825C124.12 290.908 124.12 327.045 124.12 363.128C124.12 373.484 116.375 382.398 106.335 383.786C96.0807 385.227 86.2537 379.195 83.2629 369.32C82.4618 366.598 82.1414 363.662 82.1414 360.833C82.088 320.853 82.1414 280.873 82.088 240.893C82.088 238.491 83.1561 234.968 79.0438 234.915C74.878 234.915 75.8927 238.384 75.8927 240.84C75.8927 280.927 75.8927 321.067 75.8927 361.153C75.8927 373.003 68.3623 381.971 57.6274 383.305C44.596 384.853 33.9146 375.459 33.9146 362.328C33.9146 296.406 33.9146 230.485 33.9146 164.51C33.9146 158.264 33.9146 151.966 33.9146 145.721C33.9146 143.319 33.7009 140.917 30.6033 140.863C27.3989 140.863 27.3455 143.372 27.3455 145.721C27.3455 174.651 27.3455 203.636 27.3455 232.566C27.3455 234.808 27.3455 237.157 26.8114 239.292C25.316 245.27 18.8537 249.701 12.8721 249.167C6.03593 248.58 0.588387 243.188 0.107721 236.516C0.0543136 235.502 0.107721 234.488 0.107721 233.527C0.107721 197.444 0.107721 161.307 0.107721 125.223C0.107721 104.46 14.5811 89.9941 35.3032 89.9941C64.4101 89.9941 93.5171 89.9941 122.571 89.9941C143.613 89.9941 158.033 104.406 158.033 125.384C158.033 161.841 158.033 198.351 158.033 234.808C158.033 240.466 155.683 244.79 150.77 247.459C146.07 250.021 141.317 249.754 136.884 246.872C133.359 244.576 131.169 241.267 130.902 236.943C130.742 234.434 130.742 231.926 130.742 229.417C130.742 202.568 130.742 175.772 130.742 148.923C130.742 148.069 130.742 147.162 130.742 146.308C130.635 143.852 131.062 140.756 127.324 140.863C123.959 140.97 124.173 143.746 124.173 146.201C124.173 182.445 124.173 218.635 124.173 254.878L124.12 254.825Z" />
  <path d="M78.9904 79.96C101.083 79.96 118.992 62.0603 118.992 39.98C118.992 17.8996 101.083 0 78.9904 0C56.8978 0 38.9883 17.8996 38.9883 39.98C38.9883 62.0603 56.8978 79.96 78.9904 79.96Z" />
  <path d="M422.721 181.005C461.014 163.23 480.24 135.207 480.24 96.8815C480.24 85.7255 478.425 75.1567 474.739 65.1217C471.054 55.0867 465.767 45.9591 458.824 37.6855C451.881 29.4119 443.817 22.5796 434.791 17.1884C424.163 10.7297 412.146 6.4061 398.741 4.11085C385.336 1.86898 369.474 0.748047 351.155 0.748047H226.983C210.48 0.748047 198.463 4.43112 191.093 11.8506C183.669 19.2701 179.984 31.3869 179.984 48.2543V336.174C179.984 352.721 183.616 364.785 190.826 372.364C198.089 379.944 210.106 383.734 227.036 383.734H344.105C364.346 383.734 382.024 382.773 397.139 380.745C412.306 378.716 425.712 375.3 437.408 370.443C450.172 364.785 461.174 357.098 470.36 347.223C472.016 345.515 473.564 343.701 475.06 341.832C476.448 340.124 477.784 338.309 479.065 336.495C479.973 335.16 480.935 333.826 481.789 332.438C486.542 324.965 490.281 317.118 493.005 308.845C493.539 307.19 494.073 305.482 494.5 303.774C494.981 302.119 495.355 300.411 495.729 298.703C497.438 290.963 498.239 282.903 498.239 274.576C498.239 228.244 473.03 197.072 422.721 181.058V181.005ZM257.585 79.0533C257.585 68.0041 266.558 59.0366 277.613 59.0366H320.552C348.805 59.0366 369.794 62.1859 383.52 68.5379C397.299 74.8898 404.188 87.7539 404.188 107.077C404.188 116.098 401.999 124.318 397.673 131.577C392.118 141.879 384.054 148.818 373.479 152.501C362.958 156.131 348.004 157.999 328.67 157.999H277.613C266.558 157.999 257.585 149.032 257.585 137.982V79.0533ZM257.585 233.689C257.585 222.64 266.558 213.672 277.613 213.672H338.337C365.361 213.672 385.603 218.049 399.221 226.75C412.84 235.45 419.623 249.489 419.623 268.811C419.623 290.323 411.078 305.802 394.041 314.983C389.875 317.278 385.229 319.2 380.048 320.695C369.26 323.897 356.229 325.499 341.007 325.499H277.666C274.782 325.499 272.112 324.911 269.655 323.844C266.825 322.616 264.421 320.801 262.499 318.506C261.217 317.012 260.149 315.357 259.348 313.489C258.226 311.033 257.639 308.311 257.639 305.429V233.689H257.585Z" />
  <path d="M560.244 79.96C582.337 79.96 600.246 62.0603 600.246 39.98C600.246 17.8996 582.337 0 560.244 0C538.152 0 520.242 17.8996 520.242 39.98C520.242 62.0603 538.152 79.96 560.244 79.96Z" />
  <path d="M600.3 130.082V339.59C600.3 354.109 596.508 365.105 588.871 372.524C581.233 379.944 571.567 383.68 559.817 383.68C548.067 383.68 538.561 379.89 531.244 372.257C523.927 364.624 520.242 353.735 520.242 339.59V132.217C520.242 117.859 523.927 107.076 531.244 99.8168C538.561 92.5574 548.121 88.9277 559.817 88.9277C571.513 88.9277 581.233 92.5574 588.871 99.8168C596.508 107.076 600.3 117.165 600.3 130.082Z" />
  <path d="M847.041 169.207L736.274 300.837C728.37 310.232 735.046 324.537 747.329 324.537H856.173C867.496 324.537 876.041 327.366 881.809 333.024C887.577 338.682 890.408 345.941 890.408 354.855C890.408 363.769 887.577 370.335 881.916 375.673C876.255 381.064 867.656 383.733 856.173 383.733H662.785C649.22 383.733 639.019 380.583 632.343 374.285C625.614 367.986 622.303 359.392 622.303 348.45C622.303 341.991 624.653 335.426 629.352 328.86C634.052 322.295 643.826 310.178 658.62 292.617C674.321 274.095 688.528 257.334 701.346 242.335C714.163 227.336 726.02 213.297 737.022 200.22C748.024 187.142 757.103 176.093 764.313 167.019C764.366 166.912 764.473 166.859 764.526 166.752C771.95 157.411 765.221 143.693 753.311 143.693H675.55C660.916 143.693 649.861 142.305 642.384 139.529C634.907 136.754 631.168 129.441 631.168 117.591C631.168 108.89 633.999 101.951 639.66 96.7736C645.321 91.596 653.386 88.9805 663.854 88.9805H827.707C842.875 88.9805 854.518 91.3291 862.582 96.0797C870.7 100.777 874.759 109.264 874.759 121.488C874.759 125.544 873.958 129.761 872.409 134.138C870.86 138.515 869.098 142.038 867.175 144.814C865.253 147.589 862.636 150.952 859.324 154.955C856.013 158.959 851.901 163.709 847.041 169.261V169.207Z" />
  <path d="M891.691 86.6851C888.646 83.3223 884.16 81.9345 879.674 82.8419L797.053 100.67C792.62 101.631 789.095 104.78 787.706 109.157C786.318 113.481 787.333 118.125 790.377 121.487L803.141 135.579C785.036 152.126 765.756 167.98 745.675 182.712C670.317 238.118 586.201 277.137 495.675 298.648C494.927 298.809 494.18 299.022 493.379 299.182C460.854 306.815 427.474 312.1 393.934 314.929C389.181 315.356 384.428 315.676 379.621 315.996C341.275 318.505 301.219 317.758 262.766 313.861C261.537 313.754 260.362 313.594 259.134 313.434C232.804 310.605 206.528 306.281 180.839 300.517L179.824 300.25V331.316C239.106 347.222 300.632 355.282 362.691 355.282C398.741 355.282 434.844 352.56 470.2 347.115C472.016 346.849 473.832 346.582 475.647 346.261C543.421 335.319 609.059 314.608 670.691 284.557C730.935 255.252 786.692 217.461 836.467 172.196L847.095 183.939C850.14 187.302 854.626 188.743 859.112 187.783C863.598 186.822 867.07 183.673 868.458 179.349L894.254 98.9086C895.643 94.585 894.628 89.9411 891.584 86.5783L891.691 86.6851ZM885.549 96.1864L859.753 176.627C859.219 178.281 857.83 178.762 857.243 178.869C856.655 178.975 855.213 179.135 854.038 177.801L837.162 159.172L833.69 162.321C783.701 208.333 727.516 246.658 666.685 276.283C607.35 305.16 544.222 325.391 479.012 336.387C477.463 336.653 475.861 336.92 474.259 337.187C437.675 343.059 400.183 346.048 362.798 346.048C302.341 346.048 242.364 338.308 184.524 322.989V310.765C209.893 316.263 235.902 320.373 261.858 322.989C264.368 323.256 266.932 323.522 269.495 323.736C276.812 324.43 284.182 324.964 291.606 325.391C321.14 327.152 351.155 327.099 380.262 325.231C418.235 322.775 456.1 317.224 492.951 308.737C493.806 308.577 494.66 308.31 495.515 308.15C588.123 286.478 674.109 246.765 751.176 190.131C772.752 174.225 793.528 157.09 812.808 139.209L816.173 136.113L797.266 115.242C796.091 113.961 796.358 112.52 796.572 111.986C796.732 111.452 797.32 110.118 799.082 109.744L881.703 91.9161C883.412 91.4891 884.481 92.4499 884.854 92.8769C885.282 93.3039 886.136 94.5316 885.549 96.1864Z" />
  <path
    fill="#F59B1C"
    d="M880.688 87.379L855.587 92.8235L851.528 93.6776L798.067 105.207C792.032 106.488 789.736 113.854 793.848 118.338L809.71 135.793C790.323 153.781 769.868 170.648 748.505 186.395C673.788 241.321 587.749 281.834 494.553 303.666C457.435 312.366 419.196 318.078 380.048 320.587C364.934 321.547 349.606 322.081 334.225 322.081C309.978 322.081 286.051 320.854 262.445 318.398C234.46 315.569 206.902 311.085 179.984 305V326.512C238.305 342.258 299.617 350.638 362.851 350.638C401.037 350.638 438.529 347.596 475.06 341.724C543.475 330.675 608.525 309.751 668.768 280.447C730.4 250.448 787.012 211.696 836.894 165.738L850.62 180.897C854.733 185.434 862.263 183.833 864.132 178.015L889.928 97.5742C891.797 91.7026 886.67 86.0446 880.635 87.3256L880.688 87.379Z"
  />
</svg>