<svg
  width="32"
  height="32"
  viewBox="0 0 32 32"
  fill="none"
  xmlns="http://www.w3.org/2000/svg"
>
  <path
    d="M4.57143 0H27.4286C29.9429 0 32 2.05714 32 4.57143V27.4286C32 29.9429 29.9429 32 27.4286 32H4.57143C2.05714 32 0 29.9429 0 27.4286V4.57143C0 2.05714 2.05714 0 4.57143 0Z"
    fill="#8B08F9"
  />
  <g clip-path="url(#clip0_761_9631)">
    <path
      d="M16.0341 8.89062C19.1021 8.89062 22.1907 8.89062 25.2587 8.89062C25.9133 8.89062 26.4042 9.24169 26.6292 9.79927C26.6905 9.96447 26.6701 10.0677 26.5064 10.171C23.0702 12.4426 19.6339 14.7348 16.2182 17.0271C16.075 17.1304 15.9727 17.1097 15.8295 17.0271C12.3933 14.7348 8.9775 12.4632 5.54126 10.1916C5.37763 10.0884 5.35717 9.98513 5.41854 9.81992C5.62307 9.24169 6.09351 8.89062 6.72758 8.89062C8.11844 8.89062 9.48885 8.89062 10.8797 8.89062C12.5978 8.89062 14.316 8.89062 16.0341 8.89062Z"
      fill="white"
    />
    <path
      d="M16.0141 23.7582C12.9255 23.7582 9.83702 23.7582 6.7485 23.7582C6.11443 23.7582 5.60308 23.3865 5.419 22.8082C5.37809 22.6843 5.37809 22.6017 5.50081 22.5191C8.20072 20.7844 10.9006 19.0704 13.621 17.3357C13.7437 17.2531 13.8255 17.2738 13.9278 17.3357C14.48 17.7074 15.0323 18.0585 15.5641 18.4509C15.8709 18.678 16.1573 18.6574 16.4641 18.4509C17.0163 18.0792 17.5686 17.7281 18.1004 17.3564C18.2231 17.2738 18.3049 17.2738 18.4276 17.3564C21.1275 19.0704 23.8274 20.8051 26.5273 22.5191C26.6705 22.6017 26.691 22.705 26.6501 22.8289C26.4864 23.4071 25.9751 23.7788 25.341 23.7788C22.232 23.7788 19.1231 23.7788 16.0141 23.7788V23.7582Z"
      fill="white"
    />
    <path
      d="M5.33594 11.6367C7.74949 13.2475 10.1221 14.817 12.5357 16.4277C10.1221 17.9766 7.74949 19.4841 5.33594 21.0329V11.6367Z"
      fill="white"
    />
    <path
      d="M19.4883 16.4473C21.9018 14.8365 24.2745 13.267 26.688 11.6562V21.0318C24.2949 19.5036 21.9223 17.9754 19.4883 16.4473Z"
      fill="white"
    />
  </g>
  <defs>
    <clipPath id="clip0_761_9631">
      <rect
        width="21.3333"
        height="14.8687"
        fill="white"
        transform="translate(5.33594 8.89062)"
      />
    </clipPath>
  </defs>
</svg>