<svg width="17" height="20" viewBox="0 0 17 20" fill="none" xmlns="http://www.w3.org/2000/svg">
  <path d="M8.43971 0C12.3755 0.00366367 15.6959 2.91262 16.2969 6.78696C16.5426 8.37211 16.2191 9.84002 15.5656 11.2615C14.7667 12.9981 13.6778 14.5387 12.4879 16.009C11.4415 17.3023 10.3155 18.5205 9.12557 19.677C8.68189 20.1081 8.33148 20.1087 7.8872 19.6727C5.8984 17.72 4.05311 15.6408 2.54506 13.2692C1.88133 12.2257 1.31447 11.1309 0.943138 9.94016C0.357739 8.06008 0.595725 6.23985 1.44243 4.51304C2.65927 2.02968 4.65226 0.572755 7.32871 0.0915919C7.46804 0.0665568 7.60915 0.0500702 7.75027 0.0396898C8.00321 0.0213714 8.25674 0.0103804 8.43912 0H8.43971ZM8.49652 18.2579C8.56887 18.1901 8.6203 18.1474 8.66514 18.0979C9.48733 17.1942 10.3328 16.3119 11.1245 15.3813C12.3199 13.9763 13.3962 12.4809 14.2112 10.8048C14.8235 9.54632 15.1243 8.24205 14.8444 6.82909C14.1317 3.22892 10.8997 0.962936 7.33529 1.58088C4.41667 2.08768 2.13247 4.79575 2.06191 7.81584C2.0362 8.91555 2.36089 9.9194 2.84165 10.875C4.2606 13.696 6.32175 16.006 8.49652 18.2573V18.2579Z" />
  <path d="M8.50402 12.1968C6.27125 12.1956 4.44868 10.3344 4.44629 8.0532C4.4439 5.7634 6.27663 3.90103 8.52256 3.91019C10.7619 3.91935 12.5791 5.78355 12.5689 8.06113C12.5588 10.3467 10.7386 12.198 8.50342 12.1968H8.50402ZM8.49326 10.7338C9.9433 10.7393 11.1332 9.53271 11.1368 8.05503C11.1398 6.58528 9.96602 5.38177 8.52196 5.37383C7.06893 5.36589 5.88019 6.5688 5.87899 8.04831C5.8772 9.51561 7.05816 10.7283 8.49326 10.7338Z" />
</svg>
