<svg
  viewBox="0 0 24 17"
  fill="none"
  xmlns="http://www.w3.org/2000/svg"
>
  <path
    fill-rule="evenodd"
    clip-rule="evenodd"
    d="M0 1.5C0 0.671573 0.700772 0 1.56522 0H22.4348C23.2992 0 24 0.671573 24 1.5C24 2.32843 23.2992 3 22.4348 3H1.56522C0.700772 3 0 2.32843 0 1.5Z"
  />
  <path
    fill-rule="evenodd"
    clip-rule="evenodd"
    d="M0 8.5C0 7.67157 0.700772 7 1.56522 7H22.4348C23.2992 7 24 7.67157 24 8.5C24 9.32843 23.2992 10 22.4348 10H1.56522C0.700772 10 0 9.32843 0 8.5Z"
  />
  <path
    fill-rule="evenodd"
    clip-rule="evenodd"
    d="M0 15.5C0 14.6716 0.700772 14 1.56522 14H22.4348C23.2992 14 24 14.6716 24 15.5C24 16.3284 23.2992 17 22.4348 17H1.56522C0.700772 17 0 16.3284 0 15.5Z"
  />
</svg>