<svg width="24" height="24" viewBox="0 0 24 24" fill="none" xmlns="http://www.w3.org/2000/svg">
  <path d="M20.7775 20.689L15.109 15.025C16.4712 13.391 17.1504 11.2951 17.0055 9.1734C16.8606 7.0517 15.9026 5.06752 14.3308 3.63361C12.759 2.19971 10.6945 1.42648 8.56668 1.47479C6.43887 1.5231 4.41162 2.38922 2.90665 3.89298C1.40168 5.39674 0.534859 7.42236 0.486511 9.54844C0.438164 11.6745 1.21201 13.7374 2.64707 15.3079C4.08214 16.8784 6.06792 17.8356 8.19133 17.9805C10.3147 18.1253 12.4123 17.4466 14.0476 16.0855L19.7162 21.7495L20.7775 20.689ZM2.01243 9.74948C2.01243 8.41445 2.40863 7.10941 3.15092 5.99938C3.89322 4.88935 4.94828 4.02418 6.18267 3.51329C7.41707 3.0024 8.77536 2.86873 10.0858 3.12918C11.3962 3.38963 12.5999 4.0325 13.5447 4.97651C14.4895 5.92051 15.1329 7.12324 15.3935 8.43262C15.6542 9.74199 15.5204 11.0992 15.0091 12.3326C14.4978 13.566 13.6319 14.6202 12.521 15.3619C11.4101 16.1036 10.104 16.4995 8.76787 16.4995C6.97683 16.4975 5.25971 15.7857 3.99324 14.5203C2.72678 13.2548 2.01441 11.5391 2.01243 9.74948Z"/>
</svg>
